<svg width="1102" height="302" viewBox="0 0 1102 302" fill="none" xmlns="http://www.w3.org/2000/svg">
<mask id="mask0_19_295" style="mask-type:alpha" maskUnits="userSpaceOnUse" x="10" y="10" width="284" height="284">
<path fill-rule="evenodd" clip-rule="evenodd" d="M191.189 123.133C191.076 122.977 190.961 122.823 190.846 122.671C190.682 121.535 190.506 120.393 190.316 119.245C191.895 119.573 193.483 119.926 195.079 120.304C194.945 121.94 194.79 123.561 194.614 125.165C193.583 124.632 192.553 124.112 191.525 123.606C191.415 123.447 191.303 123.29 191.189 123.133ZM199.813 121.494C199.635 123.558 199.424 125.6 199.179 127.618C200.954 128.605 202.729 129.633 204.502 130.702C205.4 128.375 206.261 126.003 207.08 123.589C204.646 122.833 202.223 122.135 199.813 121.494ZM195.409 115.434C193.393 114.965 191.387 114.536 189.395 114.145C189.004 112.153 188.575 110.148 188.106 108.133C190.595 107.998 193.116 107.912 195.663 107.879C195.63 110.426 195.545 112.945 195.409 115.434ZM180.862 112.693C182 112.857 183.145 113.034 184.294 113.224C183.967 111.645 183.614 110.058 183.236 108.463C181.602 108.597 179.982 108.752 178.379 108.928C178.914 109.962 179.435 110.994 179.942 112.025C180.098 112.134 180.254 112.244 180.409 112.357C180.561 112.467 180.712 112.58 180.862 112.693ZM105.252 137.273C105.308 137.086 105.366 136.899 105.427 136.713C105.486 136.53 105.547 136.348 105.611 136.167C105.415 135.038 105.23 133.899 105.056 132.751C103.656 133.551 102.255 134.377 100.854 135.229C101.487 136.743 102.135 138.236 102.798 139.707C103.613 138.882 104.431 138.071 105.252 137.273ZM155.426 202.075C154.39 201.556 153.366 201.029 152.354 200.495C152.159 200.499 151.964 200.502 151.768 200.502C151.573 200.502 151.379 200.499 151.186 200.495C150.173 201.03 149.147 201.557 148.11 202.077C149.304 203.162 150.523 204.239 151.767 205.308C153.012 204.239 154.232 203.161 155.426 202.075ZM126.694 176.816C128.026 178.067 129.425 179.307 130.887 180.534C132.498 181.54 134.102 182.482 135.695 183.358C137.33 184.126 139.023 184.865 140.771 185.572C142.634 186.036 144.469 186.44 146.273 186.785C148.055 187.008 149.884 187.186 151.755 187.317C153.677 187.183 155.554 186.999 157.383 186.768C159.135 186.431 160.916 186.038 162.723 185.589C164.496 184.873 166.211 184.125 167.867 183.346C169.451 182.474 171.046 181.537 172.648 180.537C174.11 179.31 175.508 178.07 176.841 176.82C178.077 175.501 179.304 174.118 180.518 172.672C181.528 171.054 182.474 169.443 183.355 167.843C184.123 166.207 184.863 164.511 185.57 162.76C186.031 160.91 186.433 159.085 186.776 157.292C187 155.503 187.179 153.667 187.311 151.788C187.178 149.883 186.996 148.021 186.768 146.208C186.428 144.433 186.029 142.627 185.573 140.796C184.854 139.016 184.102 137.293 183.319 135.63C182.452 134.056 181.52 132.471 180.526 130.88C179.311 129.433 178.083 128.048 176.846 126.728C175.519 125.483 174.126 124.247 172.669 123.024C171.059 122.018 169.456 121.076 167.864 120.2C166.22 119.428 164.518 118.685 162.76 117.974C160.904 117.511 159.075 117.108 157.276 116.765C155.482 116.54 153.641 116.361 151.757 116.229C149.879 116.361 148.045 116.54 146.257 116.764C144.463 117.106 142.639 117.508 140.788 117.969C139.042 118.675 137.351 119.412 135.719 120.178C134.113 121.061 132.495 122.011 130.871 123.025C129.416 124.248 128.023 125.483 126.696 126.728C125.462 128.044 124.238 129.424 123.027 130.866C122.009 132.496 121.056 134.118 120.17 135.729C119.407 137.356 118.672 139.042 117.968 140.782C117.51 142.622 117.11 144.435 116.768 146.218C116.541 148.027 116.36 149.884 116.227 151.784C116.359 153.661 116.537 155.496 116.762 157.285C117.105 159.086 117.509 160.917 117.972 162.776C118.682 164.531 119.424 166.231 120.195 167.871C121.068 169.456 122.005 171.052 123.006 172.654C124.223 174.105 125.454 175.493 126.694 176.816ZM163.837 200.743C165.308 201.406 166.8 202.054 168.314 202.686C169.166 201.286 169.992 199.886 170.791 198.486C169.643 198.312 168.504 198.127 167.375 197.931C167.193 197.995 167.01 198.056 166.827 198.116C166.642 198.176 166.456 198.234 166.271 198.29C165.473 199.111 164.662 199.928 163.837 200.743ZM165.719 206.821C163.812 206.014 161.936 205.182 160.094 204.327C158.605 205.71 157.078 207.082 155.512 208.439C157.448 210.012 159.437 211.563 161.48 213.088C162.951 211.006 164.364 208.915 165.719 206.821ZM172.843 204.506C173.912 202.733 174.939 200.959 175.926 199.186C177.942 199.429 179.982 199.641 182.044 199.818C181.404 202.227 180.706 204.649 179.951 207.081C177.539 206.263 175.169 205.403 172.843 204.506ZM178.463 211.663C175.675 210.718 172.938 209.718 170.258 208.669C168.706 211.095 167.078 213.514 165.377 215.92C168.436 218.082 171.513 220.12 174.595 222.03C175.966 218.672 177.259 215.213 178.463 211.663ZM184.533 208.57C185.407 205.76 186.206 202.958 186.932 200.173C189.806 200.344 192.719 200.449 195.663 200.486C195.615 204.231 195.455 207.918 195.188 211.533C191.667 210.669 188.11 209.682 184.533 208.57ZM194.763 216.387C190.888 215.453 186.976 214.376 183.044 213.152C181.723 217.053 180.294 220.853 178.772 224.539C183.366 227.213 187.955 229.601 192.491 231.698C193.461 226.795 194.226 221.677 194.763 216.387ZM199.936 212.629C200.245 208.655 200.429 204.602 200.481 200.487C204.599 200.435 208.654 200.251 212.629 199.942C213.752 205.136 214.606 210.238 215.198 215.199C210.236 214.606 205.132 213.753 199.936 212.629ZM215.703 220.107C210.428 219.513 205.007 218.634 199.495 217.461C198.907 223.066 198.069 228.494 197.002 233.695C203.503 236.445 209.859 238.579 215.926 240.078C216.375 233.845 216.309 227.139 215.703 220.107ZM220.106 215.704C219.513 210.43 218.634 205.011 217.461 199.5C223.065 198.912 228.491 198.074 233.691 197.008C236.44 203.507 238.574 209.861 240.073 215.927C233.841 216.376 227.137 216.31 220.106 215.704ZM241.129 220.678C234.688 221.183 227.789 221.156 220.576 220.577C221.155 227.791 221.183 234.692 220.677 241.134C221.586 241.313 222.487 241.476 223.379 241.625C230.369 242.786 236.732 243 242.299 242.302C242.997 236.736 242.782 230.374 241.621 223.386C241.472 222.491 241.308 221.589 241.129 220.678ZM244.918 215.463C243.408 209.182 241.25 202.629 238.471 195.949C245.508 194.271 252.078 192.166 258.046 189.695C258.497 190.505 258.932 191.312 259.349 192.116C262.612 198.402 264.782 204.386 265.839 209.894C260.761 212.277 254.644 214.039 247.64 215.094C246.745 215.229 245.838 215.352 244.918 215.463ZM266.5 214.873C261.154 217.196 255.017 218.855 248.358 219.858C247.561 219.978 246.756 220.088 245.942 220.19C246.097 220.998 246.241 221.8 246.373 222.596C247.477 229.239 247.796 235.59 247.239 241.392C253.788 239.76 258.911 236.616 262.239 232.036C265.567 227.455 266.973 221.608 266.5 214.873ZM271.122 212.586C272.101 220.996 270.635 228.675 266.136 234.867C261.638 241.058 254.79 244.825 246.492 246.494C244.823 254.794 241.056 261.644 234.864 266.142C228.672 270.641 220.993 272.107 212.582 271.129C208.431 278.505 202.732 283.853 195.455 286.218C188.177 288.583 180.421 287.605 172.726 284.076C166.497 289.812 159.422 293.14 151.768 293.14C144.116 293.14 137.042 289.813 130.814 284.08C123.118 287.609 115.362 288.587 108.083 286.222C100.806 283.857 95.1065 278.508 90.9549 271.132C82.5451 272.11 74.8662 270.644 68.6746 266.145C62.482 261.646 58.7143 254.795 57.0461 246.493C48.7469 244.825 41.8979 241.058 37.3999 234.867C32.9014 228.675 31.4349 220.996 32.4129 212.587C25.0353 208.435 19.6856 202.736 17.3209 195.458C14.956 188.179 15.9339 180.423 19.4622 172.728C13.729 166.5 10.4025 159.427 10.4025 151.774C10.4025 144.12 13.73 137.046 19.465 130.817C15.937 123.122 14.9592 115.367 17.3239 108.089C19.6889 100.81 25.0392 95.1106 32.4174 90.9588C31.4396 82.5498 32.906 74.8716 37.4041 68.6804C41.9019 62.4897 48.7501 58.7224 57.0483 57.0534C58.7168 48.7535 62.4841 41.904 68.6754 37.4058C74.8672 32.9072 82.546 31.4407 90.9555 32.4187C95.1071 25.0412 100.807 19.6915 108.085 17.3267C115.363 14.9618 123.119 15.9397 130.814 19.4681C137.042 13.7348 144.115 10.4083 151.768 10.4083C159.421 10.4083 166.494 13.7349 172.723 19.4684C180.418 15.9394 188.174 14.9611 195.453 17.3261C202.732 19.6911 208.432 25.0414 212.583 32.4197C220.992 31.4419 228.671 32.9083 234.862 37.4064C241.054 41.9056 244.822 48.7565 246.49 57.0581C254.789 58.7267 261.638 62.494 266.136 68.6849C270.634 74.8759 272.101 82.5534 271.124 90.9617C278.501 95.1132 283.851 100.813 286.215 108.09C288.58 115.369 287.602 123.124 284.074 130.82C289.807 137.048 293.134 144.122 293.134 151.774C293.134 159.426 289.808 166.499 284.075 172.727C287.603 180.422 288.581 188.177 286.216 195.455C283.851 202.734 278.501 208.434 271.122 212.586ZM270.256 207.502C268.993 201.812 266.727 195.873 263.625 189.897C263.253 189.181 262.869 188.463 262.472 187.744C263.216 187.396 263.948 187.041 264.669 186.681C270.693 183.668 276.019 180.194 280.386 176.332C282.916 182.589 283.384 188.582 281.635 193.966C279.885 199.352 275.982 203.926 270.256 207.502ZM278.219 171.8C274.126 175.636 268.852 179.203 262.515 182.372C261.705 182.777 260.879 183.174 260.038 183.564C256.661 178.057 252.584 172.492 247.876 166.997C254.053 163.225 259.652 159.192 264.566 154.996C265.245 155.626 265.906 156.259 266.551 156.893C271.598 161.865 275.512 166.886 278.219 171.8ZM264.566 148.55C265.245 147.92 265.906 147.288 266.55 146.653C271.598 141.682 275.511 136.66 278.218 131.747C274.125 127.911 268.851 124.344 262.515 121.176C261.706 120.771 260.881 120.374 260.042 119.985C256.665 125.492 252.588 131.057 247.881 136.552C254.056 140.323 259.653 144.355 264.566 148.55ZM260.919 151.773C256.141 155.8 250.677 159.688 244.632 163.331C241.052 159.413 237.155 155.546 232.968 151.777C237.157 148.006 241.055 144.137 244.636 140.218C250.68 143.86 256.142 147.747 260.919 151.773ZM240.369 137.741C236.973 141.408 233.282 145.036 229.318 148.58C226.284 145.993 223.111 143.46 219.81 140.998C222.189 137.636 224.424 134.247 226.511 130.849C231.375 132.994 236.006 135.303 240.369 137.741ZM228.994 126.68C231.812 121.802 234.322 116.92 236.516 112.088C243.391 113.684 249.788 115.693 255.577 118.047C252.278 123.352 248.285 128.736 243.662 134.067C239.045 131.446 234.143 128.972 228.994 126.68ZM224.535 124.768C227.208 120.174 229.596 115.586 231.692 111.051C226.79 110.081 221.674 109.316 216.385 108.779C215.451 112.654 214.374 116.565 213.151 120.496C217.051 121.817 220.85 123.245 224.535 124.768ZM222.026 128.944C220.115 132.028 218.077 135.107 215.913 138.167C213.508 136.466 211.09 134.84 208.665 133.288C209.715 130.606 210.716 127.867 211.662 125.077C215.21 126.281 218.668 127.573 222.026 128.944ZM208.569 119.007C209.681 115.43 210.667 111.875 211.531 108.354C207.915 108.088 204.227 107.927 200.48 107.879C200.443 110.822 200.338 113.734 200.168 116.607C202.954 117.333 205.757 118.133 208.569 119.007ZM268.173 151.773C268.771 152.333 269.357 152.896 269.931 153.461C274.729 158.187 278.721 163.137 281.68 168.159C286.019 162.99 288.317 157.435 288.317 151.774C288.317 146.113 286.019 140.557 281.68 135.388C278.72 140.409 274.729 145.359 269.931 150.085C269.357 150.65 268.771 151.213 268.173 151.773ZM202.682 135.232C201.282 134.379 199.88 133.553 198.48 132.753C198.306 133.9 198.121 135.039 197.926 136.168C197.989 136.349 198.051 136.532 198.11 136.716C198.17 136.899 198.227 137.082 198.283 137.266C199.105 138.065 199.924 138.878 200.74 139.705C201.403 138.236 202.051 136.744 202.682 135.232ZM206.817 137.827C208.91 139.181 211 140.593 213.081 142.064C211.557 144.105 210.007 146.094 208.435 148.028C207.078 146.463 205.708 144.936 204.325 143.448C205.18 141.607 206.011 139.733 206.817 137.827ZM216.978 144.896C219.982 147.137 222.871 149.435 225.641 151.777C222.872 154.118 219.984 156.415 216.982 158.655C215.22 156.294 213.423 153.999 211.595 151.773C213.421 149.549 215.218 147.255 216.978 144.896ZM229.318 154.974C233.28 158.516 236.969 162.142 240.364 165.807C236.002 168.244 231.374 170.553 226.511 172.697C224.425 169.301 222.192 165.913 219.814 162.553C223.114 160.091 226.285 157.56 229.318 154.974ZM243.657 169.481C248.28 174.813 252.274 180.197 255.573 185.503C249.786 187.855 243.391 189.864 236.518 191.46C234.324 186.627 231.812 181.744 228.994 176.866C234.141 174.575 239.042 172.101 243.657 169.481ZM232.033 262.245C236.613 258.917 239.757 253.793 241.389 247.243C235.586 247.8 229.234 247.481 222.589 246.377C221.795 246.245 220.995 246.101 220.189 245.947C220.088 246.76 219.977 247.564 219.857 248.359C218.854 255.021 217.195 261.16 214.871 266.507C221.605 266.98 227.452 265.573 232.033 262.245ZM215.094 247.642C215.228 246.748 215.351 245.842 215.462 244.923C209.179 243.414 202.625 241.255 195.944 238.475C194.266 245.513 192.16 252.083 189.689 258.052C190.5 258.504 191.308 258.938 192.112 259.356C198.399 262.62 204.383 264.789 209.891 265.846C212.275 260.767 214.038 254.649 215.094 247.642ZM185.497 255.579C187.849 249.791 189.858 243.396 191.454 236.522C186.621 234.328 181.738 231.816 176.859 228.998C174.569 234.145 172.095 239.046 169.475 243.662C174.806 248.285 180.191 252.279 185.497 255.579ZM165.801 240.368C168.238 236.006 170.546 231.378 172.691 226.515C169.294 224.429 165.906 222.195 162.546 219.817C160.085 223.117 157.553 226.288 154.967 229.321C158.51 233.284 162.135 236.973 165.801 240.368ZM151.77 225.644C154.111 222.876 156.408 219.987 158.648 216.985C156.287 215.224 153.993 213.426 151.767 211.599C149.542 213.425 147.249 215.222 144.89 216.982C147.131 219.985 149.429 222.875 151.77 225.644ZM142.058 213.084C144.099 211.56 146.087 210.011 148.021 208.439C146.457 207.082 144.93 205.712 143.442 204.329C141.601 205.184 139.727 206.015 137.821 206.821C139.175 208.914 140.588 211.004 142.058 213.084ZM135.227 202.686C136.739 202.055 138.23 201.407 139.699 200.745C138.873 199.929 138.06 199.11 137.261 198.287C137.077 198.232 136.894 198.175 136.711 198.115C136.527 198.056 136.345 197.994 136.164 197.931C135.035 198.126 133.896 198.311 132.749 198.485C133.548 199.885 134.374 201.286 135.227 202.686ZM108.922 125.163C109.954 124.629 110.985 124.109 112.014 123.603C112.123 123.446 112.234 123.289 112.347 123.133C112.461 122.977 112.576 122.822 112.693 122.668C112.856 121.533 113.032 120.393 113.221 119.247C111.642 119.575 110.054 119.928 108.458 120.306C108.591 121.941 108.746 123.56 108.922 125.163ZM122.67 112.696C121.533 112.859 120.391 113.036 119.243 113.225C119.571 111.647 119.924 110.059 120.302 108.464C121.936 108.597 123.556 108.752 125.159 108.929C124.625 109.961 124.105 110.992 123.599 112.021C123.442 112.13 123.286 112.241 123.13 112.353C122.975 112.466 122.822 112.58 122.67 112.696ZM202.073 148.116C203.158 149.31 204.235 150.529 205.304 151.773C204.236 153.017 203.159 154.235 202.075 155.428C201.554 154.389 201.025 153.361 200.49 152.346C200.494 152.156 200.496 151.965 200.496 151.774C200.496 151.581 200.494 151.388 200.489 151.195C201.024 150.181 201.552 149.154 202.073 148.116ZM213.084 161.487C211.559 159.444 210.008 157.454 208.435 155.519C207.079 157.083 205.709 158.609 204.327 160.096C205.183 161.939 206.015 163.816 206.822 165.724C208.915 164.37 211.004 162.957 213.084 161.487ZM222.026 174.601C220.116 171.52 218.079 168.443 215.916 165.384C213.512 167.084 211.095 168.711 208.669 170.263C209.719 172.943 210.719 175.68 211.664 178.468C215.212 177.265 218.669 175.972 222.026 174.601ZM231.694 192.496C229.597 187.961 227.209 183.372 224.535 178.778C220.851 180.3 217.052 181.728 213.153 183.05C214.376 186.981 215.454 190.893 216.388 194.769C221.676 194.231 226.792 193.466 231.694 192.496ZM207.498 270.263C203.923 275.986 199.35 279.887 193.967 281.636C188.582 283.386 182.588 282.917 176.33 280.387C180.19 276.021 183.664 270.697 186.675 264.675C187.035 263.954 187.39 263.221 187.738 262.478C188.458 262.875 189.176 263.26 189.893 263.632C195.869 266.734 201.809 269 207.498 270.263ZM183.558 260.044C183.169 260.885 182.771 261.711 182.366 262.521C179.199 268.855 175.633 274.128 171.798 278.22C166.885 275.513 161.864 271.6 156.893 266.553C156.257 265.908 155.624 265.245 154.994 264.566C159.188 259.653 163.22 254.056 166.991 247.88C172.486 252.589 178.051 256.667 183.558 260.044ZM163.325 244.636C159.683 250.68 155.796 256.141 151.771 260.919C147.745 256.142 143.858 250.68 140.216 244.636C144.134 241.056 148.001 237.159 151.77 232.972C155.539 237.159 159.407 241.056 163.325 244.636ZM148.574 229.322C145.031 233.284 141.405 236.973 137.74 240.369C135.302 236.006 132.993 231.376 130.848 226.511C134.244 224.426 137.632 222.192 140.992 219.814C143.454 223.115 145.987 226.287 148.574 229.322ZM138.161 215.916C135.103 218.079 132.025 220.116 128.944 222.026C127.573 218.669 126.28 215.212 125.077 211.664C127.865 210.719 130.602 209.719 133.283 208.669C134.834 211.094 136.461 213.512 138.161 215.916ZM130.697 204.506C128.372 205.404 126.001 206.264 123.589 207.082C122.833 204.65 122.136 202.227 121.495 199.818C123.557 199.641 125.598 199.429 127.613 199.185C128.601 200.959 129.629 202.733 130.697 204.506ZM125.161 194.619C123.558 194.795 121.939 194.951 120.304 195.084C119.926 193.488 119.573 191.9 119.245 190.321C120.39 190.51 121.528 190.686 122.662 190.849C122.815 190.966 122.971 191.081 123.128 191.195C123.285 191.31 123.444 191.422 123.603 191.532C124.108 192.56 124.628 193.589 125.161 194.619ZM116.607 200.173C117.333 202.959 118.133 205.76 119.007 208.571C115.428 209.684 111.871 210.671 108.348 211.535C108.082 207.919 107.921 204.232 107.873 200.486C110.819 200.449 113.732 200.344 116.607 200.173ZM120.495 213.153C121.817 217.053 123.245 220.851 124.767 224.536C120.172 227.21 115.582 229.599 111.045 231.696C110.075 226.794 109.31 221.678 108.773 216.389C112.65 215.455 116.563 214.377 120.495 213.153ZM126.679 228.995C128.971 234.143 131.445 239.046 134.066 243.662C128.733 248.287 123.347 252.281 118.04 255.582C115.687 249.793 113.678 243.396 112.081 236.52C116.916 234.326 121.799 231.814 126.679 228.995ZM136.55 247.881C140.321 254.056 144.353 259.653 148.548 264.566C147.916 265.247 147.282 265.91 146.645 266.557C141.675 271.603 136.654 275.516 131.741 278.224C127.905 274.131 124.338 268.857 121.17 262.521C120.765 261.712 120.368 260.887 119.979 260.047C125.488 256.669 131.054 252.59 136.55 247.881ZM153.461 269.933C158.187 274.731 163.137 278.722 168.159 281.682C162.988 286.024 157.431 288.322 151.768 288.322C146.107 288.322 140.551 286.025 135.381 281.685C140.402 278.725 145.352 274.735 150.077 269.937C150.644 269.362 151.209 268.774 151.771 268.173C152.332 268.772 152.895 269.359 153.461 269.933ZM200.48 195.669C204.228 195.621 207.917 195.46 211.534 195.194C210.67 191.672 209.683 188.116 208.571 184.538C205.758 185.413 202.955 186.213 200.168 186.94C200.338 189.813 200.443 192.725 200.48 195.669ZM199.813 182.052C202.223 181.411 204.648 180.712 207.082 179.956C206.264 177.544 205.404 175.174 204.507 172.849C202.732 173.918 200.956 174.947 199.18 175.936C199.424 177.951 199.635 179.99 199.813 182.052ZM198.48 170.8C199.882 170 201.285 169.173 202.687 168.319C202.055 166.804 201.406 165.311 200.743 163.839C199.927 164.666 199.108 165.478 198.287 166.277C198.231 166.462 198.173 166.647 198.113 166.831C198.053 167.017 197.991 167.202 197.926 167.385C198.122 168.514 198.306 169.653 198.48 170.8ZM139.706 102.803C138.881 103.616 138.071 104.433 137.274 105.253C137.087 105.309 136.9 105.368 136.713 105.428C136.527 105.489 136.342 105.551 136.157 105.616C135.03 105.421 133.893 105.236 132.747 105.062C133.547 103.662 134.374 102.26 135.227 100.859C136.741 101.491 138.234 102.14 139.706 102.803ZM114.145 189.399C114.536 191.392 114.966 193.398 115.434 195.415C112.944 195.55 110.422 195.635 107.873 195.669C107.907 193.121 107.992 190.6 108.127 188.11C110.145 188.579 112.152 189.008 114.145 189.399ZM108.458 183.24C110.055 183.618 111.644 183.971 113.224 184.299C113.035 183.157 112.859 182.02 112.696 180.888C112.579 180.733 112.462 180.577 112.348 180.419C112.232 180.259 112.118 180.099 112.006 179.937C110.979 179.432 109.952 178.914 108.923 178.381C108.747 179.985 108.591 181.604 108.458 183.24ZM151.192 103.053C151.384 103.049 151.576 103.046 151.768 103.046C151.963 103.046 152.157 103.049 152.35 103.053C153.364 102.518 154.391 101.99 155.429 101.47C154.235 100.385 153.017 99.3082 151.773 98.2398C150.529 99.3086 149.31 100.386 148.117 101.471C149.154 101.991 150.179 102.518 151.192 103.053ZM195.079 183.242C194.945 181.609 194.79 179.99 194.614 178.388C193.583 178.922 192.553 179.442 191.524 179.948C191.416 180.104 191.305 180.26 191.193 180.414C191.078 180.573 190.961 180.73 190.843 180.885C190.68 182.018 190.504 183.157 190.315 184.301C191.894 183.973 193.483 183.62 195.079 183.242ZM195.663 195.669C195.63 193.121 195.544 190.601 195.409 188.112C193.392 188.581 191.386 189.01 189.393 189.401C189.003 191.394 188.573 193.399 188.105 195.415C190.594 195.55 193.115 195.636 195.663 195.669ZM127.209 280.391C120.951 282.921 114.957 283.39 109.572 281.641C104.188 279.891 99.6145 275.99 96.0389 270.266C101.729 269.003 107.669 266.737 113.645 263.634C114.362 263.262 115.08 262.878 115.799 262.481C116.147 263.223 116.501 263.955 116.861 264.675C119.873 270.699 123.348 276.024 127.209 280.391ZM113.848 258.055C113.038 258.506 112.23 258.941 111.426 259.359C105.139 262.622 99.155 264.792 93.6463 265.849C91.2622 260.77 89.4996 254.652 88.4444 247.646C88.3094 246.75 88.1865 245.842 88.0756 244.921C94.3576 243.412 100.911 241.253 107.592 238.473C109.27 245.513 111.376 252.085 113.848 258.055ZM106.533 233.693C100.033 236.443 93.6779 238.577 87.6118 240.076C87.1629 233.844 87.2289 227.14 87.8352 220.108C93.1101 219.515 98.53 218.635 104.041 217.463C104.629 223.067 105.467 228.493 106.533 233.693ZM103.6 212.631C98.4047 213.754 93.3022 214.608 88.3404 215.2C88.9327 210.239 89.7863 205.137 90.9095 199.942C94.8842 200.251 98.9384 200.435 103.055 200.487C103.107 204.603 103.291 208.657 103.6 212.631ZM103.056 195.669C99.3095 195.621 95.6217 195.46 92.0054 195.194C92.8696 191.672 93.8566 188.115 94.9687 184.536C97.7806 185.411 100.583 186.211 103.369 186.937C103.198 189.811 103.093 192.724 103.056 195.669ZM103.724 182.049C101.315 181.408 98.891 180.71 96.4579 179.955C97.2769 177.542 98.137 175.17 99.035 172.844C100.808 173.913 102.583 174.941 104.357 175.928C104.113 177.945 103.901 179.986 103.724 182.049ZM105.057 170.793C103.657 169.993 102.255 169.167 100.855 168.314C101.487 166.802 102.134 165.31 102.797 163.84C103.612 164.666 104.431 165.478 105.252 166.277C105.308 166.462 105.366 166.648 105.426 166.832C105.486 167.016 105.547 167.199 105.611 167.38C105.415 168.509 105.231 169.646 105.057 170.793ZM94.8721 170.258C93.8218 172.939 92.8216 175.677 91.876 178.466C88.3284 177.263 84.8714 175.971 81.515 174.6C83.4253 171.518 85.4632 168.44 87.6267 165.38C90.0302 167.081 92.4475 168.707 94.8721 170.258ZM90.3868 183.048C89.1634 186.98 88.0857 190.893 87.1513 194.769C81.8634 194.232 76.7472 193.467 71.8455 192.497C73.9424 187.961 76.3313 183.371 79.0055 178.777C82.6896 180.299 86.4878 181.727 90.3868 183.048ZM86.0775 199.501C84.9051 205.011 84.0256 210.431 83.4324 215.705C76.4014 216.311 69.6977 216.377 63.4656 215.928C64.9647 209.863 67.0991 203.508 69.8484 197.009C75.048 198.074 80.4741 198.913 86.0775 199.501ZM82.9622 220.578C82.3829 227.791 82.355 234.691 82.8604 241.132C81.951 241.311 81.0494 241.475 80.1561 241.623C73.1676 242.784 66.8049 242.999 61.2388 242.301C60.5418 236.736 60.7563 230.375 61.9173 223.389C62.066 222.494 62.23 221.591 62.4093 220.68C68.85 221.185 75.7493 221.157 82.9622 220.578ZM83.6809 248.363C84.6841 255.024 86.3431 261.163 88.6667 266.51C81.9325 266.983 76.0868 265.576 71.5061 262.248C66.9244 258.919 63.7799 253.793 62.1485 247.241C67.9512 247.799 74.3019 247.479 80.9458 246.375C81.741 246.243 82.5418 246.099 83.3479 245.945C83.4498 246.76 83.5608 247.566 83.6809 248.363ZM178.379 194.62C179.981 194.796 181.6 194.951 183.235 195.084C183.613 193.489 183.965 191.901 184.293 190.323C183.147 190.512 182.006 190.688 180.871 190.851C180.793 190.911 180.714 190.97 180.635 191.029C180.56 191.084 180.485 191.139 180.409 191.194C180.253 191.308 180.097 191.419 179.939 191.529C179.433 192.558 178.913 193.588 178.379 194.62ZM166.826 105.433C166.644 105.374 166.463 105.317 166.281 105.262C165.481 104.439 164.667 103.619 163.84 102.802C165.309 102.14 166.8 101.492 168.313 100.86C169.165 102.261 169.991 103.662 170.791 105.062C169.642 105.236 168.503 105.421 167.372 105.617C167.191 105.554 167.009 105.492 166.826 105.433ZM99.2125 160.097C98.3578 161.938 97.5264 163.813 96.7202 165.719C94.6275 164.366 92.5388 162.954 90.4588 161.483C91.9828 159.442 93.5328 157.454 95.1049 155.52C96.4607 157.084 97.8306 158.61 99.2125 160.097ZM98.2353 151.774C99.3036 153.018 100.381 154.236 101.465 155.429C101.985 154.392 102.512 153.367 103.047 152.353C103.043 152.161 103.041 151.968 103.041 151.774C103.041 151.58 103.043 151.386 103.047 151.192C102.513 150.179 101.986 149.155 101.466 148.118C100.381 149.312 99.3041 150.531 98.2353 151.774ZM56.2988 241.391C49.7491 239.759 44.6249 236.615 41.2971 232.035C37.9689 227.454 36.5623 221.609 37.0347 214.874C42.3811 217.198 48.5194 218.856 55.1791 219.859C55.9762 219.979 56.7822 220.09 57.5967 220.192C57.4415 221 57.2977 221.802 57.1653 222.599C56.0616 229.241 55.7421 235.59 56.2988 241.391ZM58.6204 215.464C57.7002 215.354 56.792 215.231 55.8965 215.096C48.8912 214.041 42.7738 212.278 37.6957 209.895C38.7523 204.386 40.9222 198.401 44.186 192.114C44.6031 191.311 45.0374 190.504 45.4886 189.694C51.4583 192.166 58.0291 194.272 65.0685 195.95C62.2888 202.63 60.1302 209.183 58.6204 215.464ZM67.0217 191.461C60.1467 189.864 53.7501 187.855 47.9612 185.502C51.2615 180.196 55.2557 174.81 59.8795 169.478C64.4958 172.099 69.398 174.573 74.5463 176.864C71.7277 181.744 69.2161 186.627 67.0217 191.461ZM77.0298 172.696C72.1658 170.551 67.5357 168.242 63.1729 165.804C66.5689 162.138 70.2591 158.511 74.2221 154.968C77.2562 157.555 80.4282 160.087 83.729 162.549C81.3504 165.91 79.1162 169.299 77.0298 172.696ZM86.5611 158.652C83.5581 156.411 80.6688 154.113 77.8995 151.771C80.6679 149.431 83.5564 147.134 86.5584 144.893C88.3198 147.254 90.1172 149.549 91.9448 151.774C90.1182 153.999 88.3217 156.292 86.5611 158.652ZM95.105 148.029C96.4611 146.465 97.8316 144.938 99.2139 143.451C98.3585 141.608 97.5266 139.732 96.7199 137.824C94.6264 139.178 92.537 140.591 90.4562 142.062C91.9809 144.104 93.5319 146.094 95.105 148.029ZM104.357 127.616C102.583 128.603 100.808 129.631 99.0349 130.7C98.1372 128.374 97.2772 126.003 96.4584 123.59C98.8913 122.835 101.315 122.137 103.724 121.496C103.901 123.559 104.113 125.6 104.357 127.616ZM94.872 133.286C92.4466 134.837 90.0284 136.464 87.6241 138.165C85.461 135.105 83.4234 132.028 81.5133 128.945C84.8704 127.574 88.3282 126.282 91.8765 125.079C92.8219 127.867 93.8219 130.605 94.872 133.286ZM83.7264 140.996C80.4266 143.457 77.2556 145.988 74.2222 148.574C70.2598 145.031 66.5702 141.405 63.1747 137.739C67.5364 135.302 72.1654 132.994 77.0281 130.849C79.1142 134.247 81.3482 137.635 83.7264 140.996ZM70.5722 151.771C66.3838 155.541 62.4862 159.409 58.9055 163.328C52.861 159.685 47.3989 155.798 42.6209 151.772C47.3994 147.745 52.8621 143.858 58.9072 140.215C62.4873 144.134 66.3844 148.002 70.5722 151.771ZM55.6608 166.994C50.9521 172.489 46.8738 178.055 43.4966 183.563C42.6562 183.174 41.8311 182.777 41.0216 182.372C34.6849 179.204 29.4113 175.637 25.3181 171.801C28.0254 166.888 31.9387 161.866 36.9859 156.895C37.6314 156.259 38.2941 155.626 38.9737 154.995C43.8872 159.19 49.4851 163.223 55.6608 166.994ZM39.9105 189.895C36.8078 195.872 34.5418 201.812 33.2787 207.503C27.5537 203.927 23.6517 199.353 21.9022 193.969C20.1526 188.584 20.6211 182.59 23.1509 176.332C27.5178 180.194 32.8433 183.669 38.8673 186.681C39.5878 187.041 40.3196 187.395 41.0623 187.744C40.6659 188.462 40.2819 189.18 39.9105 189.895ZM108.127 115.436C110.144 114.967 112.15 114.538 114.143 114.147C114.534 112.154 114.963 110.149 115.431 108.133C112.942 107.998 110.421 107.912 107.873 107.879C107.907 110.427 107.992 112.947 108.127 115.436ZM94.9693 119.009C97.781 118.134 100.583 117.335 103.369 116.608C103.198 113.735 103.093 110.823 103.056 107.879C99.31 107.927 95.6228 108.088 92.007 108.354C92.871 111.875 93.8576 115.431 94.9693 119.009ZM79.004 124.769C82.6887 123.246 86.4877 121.818 90.3874 120.497C89.1644 116.566 88.087 112.654 87.1529 108.779C81.8644 109.316 76.7478 110.081 71.8457 111.051C73.9421 115.586 76.3304 120.175 79.004 124.769ZM59.8814 134.065C64.4968 131.445 69.3977 128.972 74.5447 126.681C71.7269 121.802 69.2158 116.92 67.0219 112.087C60.1486 113.683 53.7535 115.692 47.9657 118.044C51.2654 123.349 55.2587 128.734 59.8814 134.065ZM38.9739 148.548C43.8879 144.353 49.4863 140.32 55.6626 136.549C50.9549 131.055 46.8775 125.49 43.501 119.982C42.6591 120.372 41.8324 120.77 41.0216 121.176C34.6864 124.343 29.4137 127.909 25.3209 131.744C28.0283 136.658 31.9417 141.68 36.9892 146.651C37.6337 147.286 38.2954 147.918 38.9739 148.548ZM21.8566 168.16C24.8164 163.139 28.8074 158.189 33.6056 153.463C34.1803 152.897 34.7674 152.333 35.367 151.771C34.7686 151.211 34.1825 150.648 33.6089 150.083C28.8104 145.357 24.819 140.407 21.8592 135.384C17.518 140.555 15.2196 146.112 15.2196 151.774C15.2196 157.436 17.5171 162.991 21.8566 168.16ZM127.612 104.363C125.596 104.119 123.555 103.907 121.492 103.73C122.133 101.32 122.831 98.8959 123.587 96.4622C126 97.2811 128.371 98.1412 130.697 99.039C129.628 100.813 128.6 102.588 127.612 104.363ZM116.604 103.375C113.73 103.204 110.818 103.099 107.873 103.062C107.921 99.315 108.082 95.6269 108.348 92.0104C111.87 92.8745 115.427 93.8612 119.005 94.9731C118.131 97.7855 117.331 100.588 116.604 103.375ZM103.056 103.061C98.939 103.113 94.8853 103.297 90.9112 103.606C89.7878 98.4104 88.9342 93.3077 88.3419 88.3457C93.3033 88.938 98.4054 89.7914 103.6 90.9146C103.291 94.8896 103.107 98.944 103.056 103.061ZM86.0791 104.047C80.4752 104.635 75.0488 105.473 69.8487 106.539C67.0994 100.039 64.9651 93.6839 63.4661 87.6178C69.6985 87.1688 76.4025 87.2346 83.4339 87.8407C84.0271 93.1157 84.9066 98.5357 86.0791 104.047ZM65.0689 107.598C58.0311 109.276 51.4618 111.381 45.4931 113.851C45.0421 113.042 44.6078 112.235 44.1907 111.432C40.9268 105.144 38.7568 99.1597 37.7002 93.6506C42.7781 91.2673 48.8952 89.5052 55.8998 88.4502C56.7945 88.3155 57.7017 88.1927 58.621 88.0819C60.1306 94.3637 62.2891 100.917 65.0689 107.598ZM38.8673 116.867C32.8446 119.879 27.5201 123.352 23.1538 127.213C20.6243 120.955 20.1558 114.962 21.9053 109.578C23.655 104.193 27.5575 99.6187 33.2832 96.0427C34.5463 101.733 36.8124 107.674 39.9153 113.651C40.2866 114.366 40.6704 115.084 41.0667 115.802C40.3225 116.151 39.5892 116.506 38.8673 116.867ZM37.0393 88.671C36.567 81.9374 37.9735 76.0922 41.3013 71.5119C44.6288 66.932 49.7522 63.7881 56.3007 62.1562C55.7436 67.9584 56.063 74.3084 57.1669 80.9516C57.2991 81.7469 57.4426 82.5479 57.5975 83.3542C56.7838 83.456 55.9787 83.5668 55.1824 83.6867C48.5233 84.6897 42.3854 86.3482 37.0393 88.671ZM62.4101 82.8665C62.2311 81.957 62.0674 81.0553 61.9189 80.162C60.7577 73.1738 60.5433 66.8114 61.2408 61.2455C66.8076 60.5474 73.1712 60.7616 80.1609 61.9231C81.0533 62.0714 81.954 62.235 82.8625 62.4137C82.357 68.8548 82.3847 75.7544 82.9638 82.9677C75.7506 82.3886 68.8511 82.3609 62.4101 82.8665ZM87.8368 83.4378C87.2307 76.4063 87.1649 69.7021 87.6139 63.4696C93.6796 64.9684 100.035 67.1023 106.534 69.8513C105.468 75.0516 104.63 80.4784 104.042 86.0826C98.5307 84.9103 93.1113 84.0309 87.8368 83.4378ZM108.773 87.1563C109.311 81.8675 110.076 76.7506 111.046 71.8482C115.582 73.9448 120.171 76.3334 124.765 79.0072C123.243 82.6921 121.815 86.4913 120.493 90.3913C116.562 89.1681 112.649 88.0905 108.773 87.1563ZM125.075 91.8803C126.279 88.3318 127.571 84.8738 128.942 81.5165C132.025 83.4267 135.103 85.4645 138.162 87.6279C136.462 90.0323 134.835 92.4505 133.283 94.8761C130.602 93.8259 127.864 92.8258 125.075 91.8803ZM137.822 96.724C139.176 94.6304 140.589 92.5408 142.06 90.4599C144.102 91.9849 146.092 93.5361 148.028 95.1094C146.463 96.4656 144.937 97.836 143.449 99.2184C141.606 98.3629 139.73 97.5309 137.822 96.724ZM160.096 99.2175C158.609 97.8355 157.083 96.4654 155.519 95.1096C157.453 93.5378 159.441 91.988 161.482 90.4644C162.952 92.5444 164.364 94.6331 165.718 96.7258C163.812 97.5318 161.937 98.363 160.096 99.2175ZM151.774 91.9494C149.548 90.1216 147.252 88.3239 144.891 86.5622C147.132 83.5603 149.429 80.6719 151.769 77.9035C154.111 80.6733 156.409 83.5631 158.651 86.5666C156.291 88.3269 153.998 90.1231 151.774 91.9494ZM140.994 83.7302C137.632 81.3517 134.244 79.1176 130.846 77.0313C132.991 72.1685 135.3 67.5394 137.737 63.1775C141.403 66.5734 145.029 70.2633 148.572 74.2262C145.987 77.2595 143.455 80.4304 140.994 83.7302ZM126.678 74.548C121.799 71.7298 116.916 69.2186 112.082 67.0245C113.678 60.1507 115.687 53.7551 118.04 47.967C123.346 51.2671 128.731 55.2608 134.063 59.8841C131.443 64.4997 128.969 69.4008 126.678 74.548ZM107.593 65.0716C100.912 62.2922 94.3594 60.1339 88.0779 58.6245C88.1887 57.7049 88.3115 56.7973 88.4463 55.9024C89.5014 48.8971 91.2637 42.7796 93.6472 37.7015C99.1561 38.7581 105.141 40.9281 111.428 44.1918C112.231 44.609 113.038 45.0433 113.848 45.4945C111.377 51.4634 109.271 58.0332 107.593 65.0716ZM80.9505 57.1711C74.3058 56.0669 67.9543 55.7477 62.151 56.3053C63.7826 49.7553 66.9265 44.6308 71.5069 41.303C76.0878 37.9747 81.9335 36.5681 88.6676 37.0406C86.3446 42.3869 84.6859 48.5253 83.6829 55.1849C83.5629 55.9816 83.452 56.7871 83.3502 57.6012C82.5449 57.4465 81.7449 57.3031 80.9505 57.1711ZM96.0395 33.2845C99.6152 27.5596 104.189 23.6576 109.573 21.9081C114.958 20.1585 120.952 20.6269 127.21 23.1567C123.348 27.5236 119.874 32.8492 116.862 38.8731C116.501 39.5937 116.147 40.3254 115.799 41.0681C115.08 40.6718 114.363 40.2878 113.647 39.9164C107.67 36.8137 101.73 34.5477 96.0395 33.2845ZM119.979 43.5025C120.368 42.6621 120.766 41.8369 121.17 41.0274C124.339 34.6908 127.905 29.4171 131.741 25.324C136.655 28.0313 141.676 31.9445 146.647 36.9917C147.282 37.6367 147.915 38.2988 148.546 38.9778C144.351 43.8915 140.318 49.4896 136.547 55.6654C131.052 50.9572 125.486 46.8793 119.979 43.5025ZM140.213 58.9101C143.855 52.8654 147.742 47.4031 151.769 42.6249C155.796 47.4032 159.683 52.8657 163.325 58.9107C159.407 62.491 155.539 66.3883 151.769 70.5763C148 66.388 144.132 62.4906 140.213 58.9101ZM154.966 74.2262C158.509 70.2636 162.136 66.5739 165.802 63.1782C168.239 67.5415 170.548 72.1722 172.694 77.0368C169.297 79.1228 165.909 81.3566 162.548 83.7346C160.086 80.4333 157.553 77.2609 154.966 74.2262ZM165.379 87.6324C168.438 85.4694 171.516 83.432 174.598 81.5221C175.968 84.8783 177.26 88.3351 178.464 91.8824C175.675 92.8278 172.937 93.8278 170.257 94.8779C168.705 92.4533 167.079 90.0359 165.379 87.6324ZM172.842 99.0409C175.168 98.1431 177.539 97.2831 179.952 96.4643C180.707 98.8972 181.405 101.32 182.046 103.729C179.983 103.907 177.942 104.118 175.926 104.362C174.939 102.588 173.911 100.814 172.842 99.0409ZM151.768 15.2255C146.107 15.2255 140.551 17.523 135.382 21.8625C140.404 24.8222 145.353 28.8133 150.079 33.6114C150.645 34.1855 151.208 34.7721 151.769 35.371C152.33 34.772 152.893 34.1853 153.459 33.6111C158.184 28.8134 163.134 24.8226 168.155 21.8629C162.985 17.5232 157.43 15.2255 151.768 15.2255ZM156.891 36.9914C156.256 37.6364 155.623 38.2987 154.992 38.9778C159.187 43.8916 163.22 49.49 166.992 55.6661C172.486 50.9583 178.051 46.8807 183.559 43.504C183.169 42.6631 182.771 41.8374 182.366 41.0274C179.198 34.691 175.632 29.4174 171.795 25.3244C166.883 28.0316 161.862 31.9447 156.891 36.9914ZM185.497 47.9686C180.192 51.2685 174.807 55.2619 169.475 59.8848C172.096 64.5018 174.571 69.4045 176.862 74.5535C181.741 71.7357 186.623 69.2248 191.456 67.031C189.859 60.1554 187.85 53.7581 185.497 47.9686ZM192.492 71.8549C187.957 73.9512 183.368 76.3394 178.775 79.0127C180.297 82.6966 181.724 86.4946 183.045 90.3933C186.976 89.1703 190.888 88.0929 194.763 87.1588C194.226 81.8715 193.462 76.756 192.492 71.8549ZM195.188 92.0129C191.667 92.8769 188.111 93.8635 184.533 94.9752C185.408 97.7868 186.207 100.589 186.934 103.374C189.807 103.204 192.719 103.099 195.663 103.062C195.615 99.3159 195.455 95.6287 195.188 92.0129ZM176.327 23.1569C182.585 20.6266 188.579 20.1578 193.964 21.9075C199.349 23.6572 203.923 27.5597 207.499 33.2854C201.809 34.5486 195.868 36.8147 189.891 39.9176C189.175 40.2891 188.458 40.6732 187.739 41.0697C187.39 40.3264 187.035 39.5942 186.675 38.8731C183.663 32.8492 180.189 27.5238 176.327 23.1569ZM189.69 45.496C190.499 45.0447 191.306 44.6103 192.11 44.193C198.398 40.9291 204.382 38.7591 209.892 37.7025C212.275 42.7804 214.037 48.8974 215.092 55.902C215.227 56.799 215.35 57.7085 215.461 58.6303C209.179 60.1398 202.626 62.2983 195.945 65.078C194.267 58.0378 192.161 51.4664 189.69 45.496ZM197.004 69.8579C203.503 67.1086 209.859 64.9744 215.925 63.4754C216.373 69.7069 216.307 76.4098 215.701 83.4399C210.426 84.033 205.006 84.9125 199.495 86.085C198.907 80.4823 198.069 75.0569 197.004 69.8579ZM199.936 90.917C205.132 89.7937 210.234 88.9401 215.196 88.3478C214.604 93.3092 213.75 98.4113 212.627 103.606C208.652 103.297 204.598 103.113 200.481 103.061C200.429 98.9449 200.245 94.8912 199.936 90.917ZM217.459 104.047C218.631 98.5365 219.511 93.1172 220.104 87.8428C227.135 87.2366 233.839 87.1708 240.072 87.6197C238.573 93.6853 236.439 100.04 233.689 106.54C228.489 105.474 223.063 104.635 217.459 104.047ZM220.574 82.9698C221.153 75.7579 221.181 68.8595 220.676 62.4195C221.585 62.2406 222.487 62.0769 223.38 61.9284C230.369 60.7671 236.731 60.5528 242.297 61.2504C242.994 66.8155 242.78 73.1766 241.619 80.1632C241.47 81.0568 241.307 81.9587 241.128 82.8684C234.687 82.3629 227.787 82.3906 220.574 82.9698ZM219.855 55.1846C218.852 48.5255 217.194 42.3876 214.871 37.0416C221.605 36.5693 227.45 37.9758 232.03 41.3036C236.612 44.6324 239.756 49.7584 241.388 56.3103C235.585 55.753 229.234 56.0724 222.59 57.1764C221.795 57.3085 220.995 57.452 220.189 57.6068C220.087 56.7907 219.976 55.9832 219.855 55.1846ZM247.237 62.1607C253.787 63.7923 258.911 66.9362 262.239 71.5164C265.567 76.0965 266.973 81.941 266.502 88.6736C261.155 86.3505 255.017 84.6918 248.357 83.6888C247.56 83.5688 246.755 83.4578 245.94 83.356C246.095 82.5495 246.239 81.7483 246.371 80.9528C247.475 74.3109 247.794 67.962 247.237 62.1607ZM244.917 88.0837C245.837 88.1945 246.745 88.3174 247.64 88.4522C254.645 89.5074 260.763 91.2698 265.841 93.6534C264.785 99.1632 262.615 105.149 259.35 111.437C258.934 112.24 258.5 113.046 258.049 113.854C252.08 111.383 245.509 109.277 238.469 107.598C241.249 100.918 243.407 94.3651 244.917 88.0837ZM281.634 109.579C279.885 104.195 275.983 99.6215 270.258 96.0458C268.995 101.737 266.729 107.679 263.626 113.657C263.255 114.371 262.871 115.087 262.476 115.805C263.218 116.153 263.949 116.507 264.669 116.867C270.693 119.879 276.019 123.354 280.385 127.215C282.915 120.957 283.384 114.964 281.634 109.579Z" fill="#231F20"/>
</mask>
<g mask="url(#mask0_19_295)">
<rect x="0.302124" width="301.698" height="302" fill="black"/>
</g>
<path d="M376.11 241.947H432.195C435.605 241.947 446.721 241.947 455.184 240.811C497.247 235.253 519.1 197.484 519.1 151C519.1 104.642 497.247 66.7473 455.184 61.1894C446.595 60.0526 435.731 60.0526 432.195 60.0526H376.11V241.947ZM399.226 220.474V81.5263H432.195C438.258 81.5263 447.352 81.7789 453.289 82.9158C482.721 88.221 495.226 116.642 495.226 151C495.226 184.726 483.1 213.653 453.289 219.084C447.352 220.221 438.51 220.474 432.195 220.474H399.226Z" fill="black"/>
<path d="M540.489 241.947H562.973V162.242H631.436V139.758H562.973V82.5368H646.594V60.0526H540.489V241.947Z" fill="black"/>
<path d="M661.693 241.947H684.177V162.242H752.64V139.758H684.177V82.5368H767.798V60.0526H661.693V241.947Z" fill="black"/>
<path d="M786.326 241.947H807.673V109.442L869.441 241.947H881.441L943.21 109.442V241.821H964.557V60.0526H943.841L875.505 204.937L806.789 60.0526H786.326V241.947Z" fill="black"/>
<path d="M994.924 241.947H1101.79V220.6H1017.41V60.0526H994.924V241.947Z" fill="black"/>
</svg>
