<svg width="302" height="302" viewBox="0 0 302 302" fill="none" xmlns="http://www.w3.org/2000/svg">
<path fill-rule="evenodd" clip-rule="evenodd" d="M151 116.866C148.546 117.053 146.166 117.32 143.868 117.666C141.691 117.994 139.6 118.39 137.599 118.852C136.918 119.153 136.246 119.459 135.584 119.77C133.978 120.653 132.361 121.603 130.737 122.617C129.282 123.839 127.889 125.075 126.562 126.32C125.329 127.635 124.105 129.015 122.894 130.457C122.224 131.529 121.582 132.598 120.97 133.662L103.841 123.773C103.751 122.882 103.667 121.987 103.59 121.088C102.599 121.351 101.606 121.625 100.61 121.907L94.866 118.591C97.6674 117.72 100.459 116.924 103.235 116.2C103.065 113.326 102.96 110.415 102.922 107.471C99.1763 107.519 95.489 107.679 91.8733 107.946C92.7346 111.456 93.7178 115.001 94.8254 118.567L88.768 115.07C88.1376 112.827 87.5548 110.593 87.0191 108.37C84.2733 108.649 81.5737 108.99 78.9265 109.388L72.3796 105.608C76.7605 104.788 81.2917 104.127 85.9454 103.639C84.7728 98.1273 83.8934 92.7073 83.3002 87.4324C76.2688 86.8262 69.5648 86.7604 63.3324 87.2095C64.6229 92.4321 66.3844 97.8693 68.6039 103.428L62.0371 99.6371C60.6088 95.5677 59.4233 91.5685 58.4873 87.6735C57.5679 87.7843 56.6606 87.9071 55.766 88.0418C52.174 88.5828 48.8154 89.3098 45.7107 90.2111L40.1165 86.9812C44.6616 85.3188 49.6861 84.086 55.0485 83.2784C55.8449 83.1584 56.6501 83.0476 57.4638 82.9458C57.3089 82.1395 57.1654 81.3386 57.0332 80.5433C55.9293 73.9001 55.6099 67.5501 56.1669 61.7479C49.6185 63.3798 44.4951 66.5236 41.1676 71.1036C38.3757 74.9463 36.9361 79.6792 36.8237 85.0802L32.1455 82.3792C32.6275 77.1672 34.2781 72.3906 37.2704 68.2721C41.7682 62.0814 48.6164 58.3141 56.9146 56.6451C58.5831 48.3452 62.3504 41.4957 68.5417 36.9974C74.7335 32.4988 82.4123 31.0324 90.8218 32.0104C94.9734 24.6328 100.673 19.2831 107.951 16.9184C115.229 14.5534 122.985 15.5314 130.68 19.0597C136.736 13.4851 143.591 10.1859 151 10.0076V14.8267C145.558 14.9916 140.225 17.2767 135.248 21.4541C140.27 24.4139 145.22 28.4049 149.946 33.2031C150.298 33.5609 150.649 33.9235 151 34.2909V42.9773C147.2 47.5718 143.53 52.7754 140.079 58.5017C143.778 61.8813 147.432 65.5433 151 69.4657V78.2507C148.879 80.7879 146.795 83.4239 144.757 86.1537C146.893 87.7472 148.975 89.3702 151 91.0182V98.3834C149.977 99.2709 148.971 100.164 147.983 101.062C149 101.572 150.006 102.09 151 102.614V116.866ZM111.88 123.195C110.851 123.701 109.82 124.221 108.789 124.755C108.613 123.152 108.457 121.532 108.324 119.898C109.92 119.519 111.508 119.166 113.088 118.838C112.899 119.984 112.722 121.125 112.559 122.26C112.442 122.413 112.327 122.568 112.213 122.725C112.1 122.881 111.989 123.037 111.88 123.195ZM119.109 112.817C120.257 112.627 121.399 112.451 122.536 112.288C122.688 112.172 122.842 112.058 122.997 111.945C123.029 111.922 123.061 111.899 123.093 111.876C123.133 111.847 123.173 111.818 123.214 111.789C123.262 111.755 123.311 111.72 123.359 111.686C123.394 111.662 123.43 111.637 123.465 111.613C123.971 110.583 124.491 109.552 125.026 108.52C123.422 108.344 121.803 108.189 120.168 108.055C119.79 109.651 119.437 111.238 119.109 112.817ZM137.14 104.845C137.937 104.025 138.747 103.208 139.572 102.395C138.1 101.731 136.607 101.083 135.093 100.45C134.24 101.851 133.413 103.253 132.613 104.654C133.759 104.828 134.896 105.012 136.024 105.207C136.208 105.143 136.393 105.08 136.579 105.02C136.766 104.959 136.953 104.901 137.14 104.845ZM114.009 113.738C112.016 114.129 110.01 114.559 107.993 115.027C107.858 112.538 107.773 110.018 107.74 107.471C110.288 107.504 112.808 107.589 115.298 107.724C114.829 109.741 114.4 111.746 114.009 113.738ZM121.358 103.321C123.421 103.499 125.462 103.71 127.478 103.954C128.466 102.18 129.494 100.404 130.563 98.6306C128.237 97.7328 125.866 96.8728 123.453 96.0539C122.697 98.4875 121.999 100.911 121.358 103.321ZM107.739 102.653C110.684 102.691 113.596 102.796 116.471 102.966C117.197 100.18 117.997 97.3771 118.871 94.5648C115.293 93.4529 111.736 92.4661 108.215 91.602C107.948 95.2186 107.787 98.9067 107.739 102.653ZM90.7774 103.198C94.7516 102.889 98.8053 102.704 102.922 102.653C102.973 98.5356 103.158 94.4812 103.467 90.5062C98.2717 89.3831 93.1696 88.5296 88.2081 87.9374C88.8004 92.8994 89.654 98.0021 90.7774 103.198ZM61.7852 79.7536C61.9337 80.647 62.0974 81.5487 62.2764 82.4581C68.7173 81.9525 75.6169 81.9803 82.8301 82.5593C82.251 75.3461 82.2232 68.4464 82.7288 62.0054C81.8203 61.8267 80.9196 61.6631 80.0271 61.5148C73.0375 60.3533 66.6739 60.1391 61.1071 60.8372C60.4096 66.4031 60.624 72.7655 61.7852 79.7536ZM87.4802 63.0613C87.0312 69.2938 87.0969 75.9979 87.7031 83.0295C92.9775 83.6225 98.397 84.5019 103.908 85.6743C104.496 80.07 105.334 74.6433 106.4 69.443C99.901 66.694 93.5458 64.56 87.4802 63.0613ZM110.912 71.4399C109.942 76.3423 109.177 81.4592 108.64 86.7479C112.515 87.6822 116.428 88.7597 120.36 89.9829C121.681 86.083 123.109 82.2838 124.632 78.5989C120.037 75.925 115.448 73.5365 110.912 71.4399ZM128.808 81.1082C127.437 84.4655 126.145 87.9234 124.941 91.472C127.73 92.4175 130.468 93.4176 133.149 94.4677C134.701 92.0422 136.328 89.6239 138.029 87.2195C134.969 85.0561 131.891 83.0184 128.808 81.1082ZM141.926 90.0515C140.455 92.1324 139.042 94.222 137.688 96.3157C139.596 97.1225 141.472 97.9545 143.315 98.8101C144.803 97.4277 146.329 96.0573 147.894 94.7011C145.958 93.1278 143.968 91.5765 141.926 90.0515ZM130.713 76.623C134.11 78.7093 137.499 80.9434 140.86 83.3218C143.321 80.022 145.853 76.851 148.439 73.8177C144.895 69.8549 141.269 66.165 137.603 62.7692C135.166 67.131 132.857 71.7602 130.713 76.623ZM111.948 66.6162C116.782 68.8103 121.665 71.3215 126.544 74.1397C128.835 68.9925 131.309 64.0913 133.929 59.4758C128.597 54.8525 123.212 50.8588 117.906 47.5587C115.554 53.3468 113.545 59.7424 111.948 66.6162ZM87.9442 58.2162C94.2257 59.7256 100.778 61.8838 107.459 64.6633C109.137 57.6249 111.243 51.0551 113.714 45.0861C112.904 44.6349 112.098 44.2006 111.294 43.7834C105.007 40.5197 99.0224 38.3498 93.5135 37.2932C91.13 42.3713 89.3677 48.4888 88.3126 55.494C88.1778 56.389 88.055 57.2966 87.9442 58.2162ZM62.0173 55.897C67.8206 55.3394 74.172 55.6586 80.8168 56.7628C81.6112 56.8948 82.4112 57.0382 83.2165 57.1929C83.3182 56.3788 83.4291 55.5732 83.5491 54.7766C84.5522 48.1169 86.2109 41.9785 88.5339 36.6322C81.7998 36.1598 75.9541 37.5664 71.3732 40.8946C66.7928 44.2225 63.6488 49.347 62.0173 55.897ZM109.439 21.4998C104.055 23.2493 99.4815 27.1512 95.9058 32.8762C101.596 34.1393 107.537 36.4053 113.513 39.508C114.229 39.8794 114.946 40.2634 115.665 40.6598C116.013 39.9171 116.368 39.1853 116.728 38.4647C119.74 32.4408 123.214 27.1153 127.076 22.7484C120.818 20.2186 114.824 19.7502 109.439 21.4998ZM121.037 40.6191C120.632 41.4285 120.234 42.2537 119.845 43.0941C125.353 46.471 130.918 50.5489 136.413 55.2571C140.184 49.0812 144.217 43.4831 148.412 38.5695C147.782 37.8905 147.149 37.2283 146.514 36.5834C141.542 31.5362 136.521 27.6229 131.608 24.9157C127.771 29.0088 124.205 34.2824 121.037 40.6191Z" fill="url(#paint0_linear_19_212)"/>
<path fill-rule="evenodd" clip-rule="evenodd" d="M32.0836 219.657L36.8118 216.927C36.8126 216.121 36.8423 215.3 36.9008 214.466C37.6991 214.813 38.5151 215.145 39.3479 215.463L44.8758 212.271C42.2442 211.469 39.8019 210.538 37.5618 209.487C38.6184 203.978 40.7883 197.993 44.052 191.706C44.4692 190.903 44.9035 190.096 45.3547 189.286C51.3244 191.758 57.8952 193.863 64.9346 195.542C64.008 197.769 63.1503 199.982 62.3627 202.175L68.9877 198.35C69.225 197.768 69.4672 197.185 69.7144 196.6C70.2826 196.717 70.8535 196.831 71.4271 196.942L77.9261 193.189C75.8196 192.859 73.7471 192.491 71.7116 192.089C73.8085 187.552 76.1974 182.963 78.8716 178.369C82.5556 179.891 86.3539 181.319 90.2528 182.64C89.8218 184.025 89.4089 185.408 89.0139 186.788L99.7671 180.579C98.6218 180.248 97.4739 179.904 96.3239 179.547C97.1429 177.133 98.0031 174.762 98.9011 172.436C100.674 173.504 102.449 174.533 104.223 175.52C104.116 176.402 104.016 177.289 103.922 178.181L120.652 168.521C120.453 168.169 120.256 167.817 120.062 167.465C119.291 165.824 118.549 164.123 117.838 162.367C117.375 160.509 116.972 158.678 116.628 156.878C116.403 155.089 116.225 153.253 116.093 151.375C116.226 149.475 116.407 147.618 116.635 145.81C116.976 144.027 117.376 142.213 117.834 140.374C118.538 138.634 119.273 136.948 120.036 135.321C120.34 134.769 120.651 134.216 120.97 133.662L103.841 123.773C103.958 124.925 104.085 126.07 104.223 127.208C102.449 128.195 100.674 129.223 98.9011 130.292C98.0033 127.966 97.1434 125.595 96.3246 123.182C97.7568 122.737 99.1857 122.313 100.61 121.908L94.8658 118.591C94.8557 118.594 94.8456 118.597 94.8355 118.6C94.8321 118.59 94.8287 118.579 94.8253 118.568L88.7679 115.07C89.2367 116.739 89.7319 118.412 90.2536 120.089C86.3538 121.41 82.5549 122.838 78.8701 124.36C76.1966 119.767 73.8083 115.178 71.7118 110.643C74.0687 110.176 76.4751 109.757 78.9263 109.388L72.3795 105.609C71.4849 105.776 70.5966 105.95 69.7149 106.131C69.3326 105.227 68.9622 104.326 68.6038 103.429L62.037 99.6373C62.9123 102.131 63.8788 104.651 64.935 107.19C57.8972 108.868 51.3279 110.973 45.3592 113.443C44.9082 112.634 44.474 111.827 44.0569 111.024C40.793 104.736 38.6229 98.7515 37.5664 93.2423C40.0403 92.0812 42.7609 91.0675 45.7106 90.2112L40.1163 86.9814C39.0174 87.3834 37.9464 87.8105 36.9055 88.2627C36.8294 87.1784 36.8021 86.1171 36.8236 85.0804L32.1454 82.3794C31.9029 85.0023 31.9563 87.7355 32.2836 90.5506C24.9053 94.7023 19.555 100.402 17.1899 107.681C14.8253 114.959 15.803 122.714 19.331 130.409C13.5961 136.637 10.2686 143.712 10.2686 151.366C10.2686 159.018 13.5951 166.092 19.3283 172.32C15.8 180.015 14.8221 187.771 17.187 195.049C19.5517 202.327 24.9014 208.027 32.279 212.178C31.9803 214.746 31.9096 217.246 32.0836 219.657ZM105.59 136.407C104.611 137.352 103.635 138.316 102.665 139.299C102.001 137.828 101.353 136.335 100.721 134.821C102.121 133.969 103.522 133.142 104.922 132.343C105.13 133.711 105.353 135.066 105.59 136.407ZM100.721 167.906C102.121 168.759 103.523 169.585 104.923 170.385C105.097 169.238 105.282 168.1 105.477 166.972C105.413 166.79 105.352 166.608 105.292 166.424C105.232 166.239 105.174 166.054 105.118 165.869C104.297 165.07 103.478 164.258 102.663 163.432C102 164.902 101.353 166.393 100.721 167.906ZM91.742 178.058C92.6876 175.269 93.6879 172.531 94.7382 169.85C92.3136 168.299 89.8962 166.672 87.4927 164.972C85.3293 168.032 83.2914 171.11 81.3811 174.192C84.7375 175.563 88.1945 176.855 91.742 178.058ZM96.5862 165.311C97.3924 163.405 98.2238 161.53 99.0786 159.689C97.6967 158.202 96.3268 156.676 94.971 155.112C93.3989 157.046 91.8488 159.034 90.3249 161.075C92.4049 162.545 94.4935 163.958 96.5862 165.311ZM101.331 155.021C100.247 153.828 99.1697 152.61 98.1013 151.366C99.1702 150.122 100.248 148.903 101.332 147.71C101.852 148.747 102.379 149.771 102.913 150.784C102.909 150.977 102.907 151.172 102.907 151.366C102.907 151.559 102.909 151.752 102.913 151.945C102.379 152.958 101.851 153.984 101.331 155.021ZM47.8273 185.094C53.6162 187.447 60.0128 189.456 66.8877 191.052C69.0822 186.219 71.5938 181.336 74.4124 176.456C69.2641 174.165 64.3619 171.691 59.7455 169.07C55.1218 174.402 51.1277 179.787 47.8273 185.094ZM63.039 165.396C67.4017 167.834 72.0319 170.143 76.8959 172.288C78.9823 168.89 81.2165 165.502 83.595 162.141C80.2943 159.679 77.1224 157.147 74.0882 154.56C70.1252 158.103 66.435 161.73 63.039 165.396ZM77.7656 151.363C80.5349 153.705 83.4242 156.002 86.4272 158.244C88.1877 155.884 89.9843 153.591 91.8109 151.366C89.9834 149.141 88.186 146.846 86.4245 144.485C83.4225 146.725 80.5341 149.023 77.7656 151.363ZM99.08 143.042C97.6977 144.53 96.3273 146.056 94.9711 147.621C93.3981 145.686 91.8471 143.696 90.3223 141.654C92.4031 140.183 94.4926 138.77 96.5861 137.416C97.3928 139.324 98.2247 141.2 99.08 143.042ZM87.4903 137.756C89.8946 136.056 92.3127 134.429 94.7381 132.877C93.6881 130.197 92.6881 127.459 91.7427 124.67C88.1944 125.874 84.7366 127.166 81.3795 128.537C83.2895 131.619 85.3271 134.697 87.4903 137.756ZM74.0883 148.166C77.1217 145.58 80.2927 143.049 83.5925 140.588C81.2143 137.227 78.9804 133.839 76.8943 130.441C72.0316 132.586 67.4026 134.894 63.0408 137.331C66.4363 140.997 70.1259 144.623 74.0883 148.166ZM58.7716 162.92C62.3523 159.001 66.2499 155.133 70.4383 151.363C66.2505 147.594 62.3535 143.726 58.7733 139.807C52.7282 143.45 47.2655 147.337 42.487 151.363C47.265 155.39 52.7271 159.277 58.7716 162.92ZM43.3627 183.155C46.7399 177.647 50.8182 172.081 55.5269 166.586C49.3512 162.814 43.7533 158.781 38.8398 154.587C38.1602 155.217 37.4975 155.851 36.852 156.487C31.8048 161.458 27.8915 166.479 25.1843 171.392C29.2773 175.229 34.551 178.795 40.8877 181.964C41.6971 182.368 42.5223 182.766 43.3627 183.155ZM33.1448 207.094C34.4079 201.404 36.6739 195.464 39.7766 189.487C40.148 188.771 40.532 188.054 40.9284 187.335C40.1857 186.987 39.4539 186.633 38.7333 186.272C32.7094 183.26 27.3839 179.786 23.017 175.924C20.4872 182.182 20.0187 188.176 21.7684 193.561C23.5179 198.945 27.4198 203.519 33.1448 207.094ZM74.4109 126.273C69.2639 128.563 64.3629 131.037 59.7475 133.657C55.1248 128.326 51.1315 122.941 47.8318 117.636C53.6196 115.283 60.0147 113.275 66.888 111.679C69.082 116.512 71.593 121.394 74.4109 126.273ZM55.5287 136.141C49.3524 139.912 43.7539 143.945 38.84 148.14C38.1614 147.51 37.4997 146.878 36.8553 146.243C31.8077 141.271 27.8943 136.25 25.187 131.336C29.2797 127.501 34.5524 123.935 40.8876 120.768C41.6985 120.362 42.5252 119.964 43.3671 119.574C46.7436 125.081 50.821 130.646 55.5287 136.141ZM33.4717 153.055C28.6735 157.781 24.6825 162.73 21.7227 167.752C17.3832 162.583 15.0857 157.027 15.0857 151.366C15.0857 145.703 17.3841 140.147 21.7252 134.976C24.6851 139.998 28.6764 144.949 33.4749 149.675C34.0486 150.24 34.6346 150.803 35.233 151.363C34.6335 151.925 34.0463 152.489 33.4717 153.055ZM23.0198 126.805C27.3861 122.944 32.7107 119.47 38.7333 116.459C39.4553 116.098 40.1885 115.743 40.9328 115.394C40.5366 114.675 40.1527 113.958 39.7815 113.243C36.6786 107.266 34.4125 101.325 33.1493 95.6345C27.4236 99.2105 23.5211 103.784 21.7713 109.17C20.0219 114.554 20.4903 120.547 23.0198 126.805Z" fill="url(#paint1_linear_19_212)"/>
<path fill-rule="evenodd" clip-rule="evenodd" d="M151 292.724C143.59 292.545 136.735 289.246 130.68 283.671C122.984 287.2 115.228 288.179 107.949 285.814C100.672 283.449 94.9725 278.1 90.8208 270.723C82.4111 271.702 74.7322 270.235 68.5406 265.737C62.348 261.238 58.5803 254.387 56.9121 246.085C48.6129 244.417 41.7639 240.649 37.2659 234.458C34.1411 230.157 32.4793 225.139 32.0835 219.657L36.8117 216.927C36.8062 222.629 38.2471 227.613 41.1631 231.627C44.4909 236.207 49.6151 239.351 56.1648 240.983C55.6081 235.181 55.9276 228.832 57.0313 222.191C57.1637 221.394 57.3075 220.592 57.4627 219.784C56.6482 219.682 55.8422 219.571 55.0451 219.451C49.3799 218.598 44.0919 217.27 39.3478 215.462L44.8757 212.271C48.2097 213.287 51.8475 214.098 55.7625 214.688C56.658 214.822 57.5662 214.945 58.4864 215.056C59.4929 210.869 60.7877 206.561 62.3626 202.175L68.9876 198.35C66.5863 204.24 64.6959 210 63.3315 215.52C69.5637 215.969 76.2673 215.903 83.2983 215.297C83.8915 210.023 84.771 204.603 85.9435 199.092C80.9524 198.569 76.102 197.846 71.427 196.942L77.926 193.189C80.892 193.655 83.9253 194.047 87.0172 194.361C87.6224 191.85 88.2877 189.324 89.0138 186.788L99.767 180.579C101.045 180.949 102.319 181.303 103.59 181.641C103.69 180.48 103.8 179.327 103.921 178.181L120.652 168.521C121.353 169.757 122.093 170.999 122.871 172.246C124.601 174.307 126.357 176.242 128.131 178.043C128.515 178.432 128.899 178.815 129.283 179.191C131.389 180.553 133.484 181.807 135.561 182.95C137.196 183.718 138.889 184.456 140.638 185.164C142.499 185.628 144.334 186.032 146.137 186.376C147.722 186.575 149.344 186.737 151 186.863V200.437C150.899 200.382 150.798 200.328 150.697 200.273C149.8 200.744 148.893 201.209 147.976 201.669C148.967 202.569 149.975 203.464 151 204.354V211.708C148.974 213.356 146.892 214.98 144.756 216.574C146.794 219.304 148.878 221.941 151 224.479V233.267C147.433 237.188 143.78 240.849 140.082 244.228C143.532 249.953 147.201 255.155 151 259.748V268.439C150.649 268.807 150.296 269.17 149.943 269.529C145.218 274.326 140.268 278.317 135.247 281.277C140.224 285.454 145.558 287.74 151 287.905V292.724ZM147.887 208.03C145.953 209.602 143.965 211.152 141.924 212.676C140.454 210.595 139.041 208.506 137.687 206.413C139.593 205.607 141.467 204.776 143.308 203.921C144.796 205.304 146.323 206.674 147.887 208.03ZM139.565 200.337C138.096 200.999 136.605 201.647 135.093 202.278C134.24 200.878 133.414 199.477 132.615 198.077C133.762 197.903 134.901 197.718 136.03 197.523C136.211 197.586 136.393 197.648 136.577 197.707C136.76 197.767 136.943 197.824 137.126 197.879C137.926 198.701 138.738 199.521 139.565 200.337ZM137.606 239.96C141.271 236.565 144.897 232.876 148.439 228.913C145.853 225.879 143.32 222.707 140.858 219.406C137.498 221.784 134.11 224.017 130.714 226.103C132.859 230.967 135.168 235.598 137.606 239.96ZM128.81 221.618C131.891 219.708 134.969 217.671 138.027 215.508C136.327 213.104 134.7 210.686 133.149 208.261C130.468 209.311 127.731 210.311 124.943 211.256C126.146 214.804 127.439 218.261 128.81 221.618ZM123.455 206.674C125.867 205.855 128.238 204.995 130.563 204.098C129.495 202.325 128.467 200.551 127.479 198.777C125.464 199.021 123.423 199.232 121.361 199.41C122.002 201.819 122.699 204.241 123.455 206.674ZM120.17 194.676C121.805 194.542 123.424 194.387 125.027 194.211C124.494 193.181 123.974 192.152 123.469 191.124C123.309 191.014 123.151 190.901 122.994 190.787C122.837 190.673 122.681 190.557 122.528 190.44C121.395 190.277 120.256 190.101 119.111 189.913C119.439 191.492 119.792 193.08 120.17 194.676ZM118.873 208.163C117.999 205.352 117.199 202.55 116.473 199.765C113.598 199.935 110.685 200.041 107.739 200.078C107.787 203.824 107.948 207.511 108.214 211.127C111.737 210.263 115.294 209.276 118.873 208.163ZM124.633 224.128C123.111 220.443 121.683 216.644 120.361 212.745C116.429 213.969 112.516 215.047 108.639 215.981C109.176 221.269 109.941 226.386 110.911 231.288C115.448 229.191 120.038 226.802 124.633 224.128ZM133.932 243.254C131.311 238.638 128.837 233.735 126.545 228.587C121.665 231.406 116.782 233.917 111.947 236.112C113.544 242.988 115.553 249.385 117.906 255.174C123.213 251.873 128.599 247.879 133.932 243.254ZM148.414 264.158C144.219 259.245 140.187 253.648 136.416 247.473C130.92 252.182 125.354 256.261 119.845 259.639C120.234 260.479 120.631 261.303 121.036 262.112C124.204 268.449 127.771 273.722 131.607 277.815C136.52 275.108 141.541 271.195 146.511 266.148C147.148 265.502 147.782 264.839 148.414 264.158ZM115.3 195.007C114.832 192.99 114.402 190.984 114.011 188.991C112.018 188.6 110.011 188.17 107.993 187.702C107.858 190.191 107.773 192.712 107.739 195.26C110.288 195.227 112.81 195.142 115.3 195.007ZM113.09 183.891C111.51 183.563 109.921 183.21 108.324 182.831C108.457 181.196 108.613 179.576 108.789 177.973C109.818 178.505 110.845 179.024 111.872 179.529C111.984 179.69 112.098 179.851 112.214 180.011C112.328 180.169 112.445 180.325 112.562 180.48C112.725 181.611 112.901 182.748 113.09 183.891ZM109.438 281.232C114.823 282.982 120.817 282.513 127.075 279.983C123.214 275.616 119.739 270.29 116.727 264.267C116.367 263.547 116.013 262.815 115.665 262.073C114.945 262.47 114.228 262.854 113.511 263.226C107.535 266.328 101.595 268.594 95.9048 269.858C99.4805 275.581 104.054 279.483 109.438 281.232ZM111.292 258.95C112.096 258.533 112.904 258.098 113.714 257.647C111.242 251.676 109.136 245.105 107.458 238.065C100.777 240.845 94.2235 243.003 87.9416 244.513C88.0525 245.433 88.1754 246.342 88.3103 247.238C89.3655 254.244 91.1282 260.362 93.5122 265.441C99.0209 264.384 105.005 262.214 111.292 258.95ZM87.4777 239.668C93.5438 238.169 99.8994 236.035 106.399 233.285C105.333 228.085 104.495 222.659 103.907 217.055C98.3959 218.227 92.976 219.107 87.7011 219.7C87.0948 226.731 87.0289 233.435 87.4777 239.668ZM88.2063 214.792C93.1682 214.2 98.2707 213.346 103.466 212.223C103.157 208.249 102.973 204.195 102.921 200.078C98.8044 200.027 94.7502 199.843 90.7755 199.533C89.6522 204.728 88.7986 209.831 88.2063 214.792ZM91.8714 194.786C95.4876 195.052 99.1755 195.213 102.922 195.261C102.959 192.316 103.064 189.403 103.235 186.529C100.449 185.802 97.6465 185.003 94.8346 184.128C93.7225 187.706 92.7356 191.264 91.8714 194.786ZM82.7264 240.724C82.2209 234.283 82.2489 227.383 82.8281 220.17C75.6153 220.749 68.716 220.777 62.2753 220.271C62.096 221.182 61.932 222.085 61.7833 222.98C60.6223 229.967 60.4078 236.328 61.1048 241.893C66.6709 242.591 73.0336 242.376 80.0221 241.215C80.9154 241.066 81.817 240.903 82.7264 240.724ZM88.5326 266.102C86.209 260.755 84.55 254.616 83.5469 247.955C83.4268 247.158 83.3157 246.351 83.2139 245.536C82.4077 245.691 81.6069 245.835 80.8118 245.967C74.1679 247.071 67.8172 247.39 62.0145 246.833C63.6459 253.385 66.7904 258.511 71.3721 261.84C75.9528 265.168 81.7984 266.574 88.5326 266.102Z" fill="url(#paint2_linear_19_212)"/>
<path fill-rule="evenodd" clip-rule="evenodd" d="M271.126 220.355C270.644 225.566 268.994 230.342 266.002 234.459C261.504 240.65 254.656 244.417 246.358 246.086C244.689 254.386 240.922 261.236 234.731 265.734C228.538 270.233 220.859 271.699 212.449 270.721C208.297 278.097 202.598 283.445 195.321 285.809C188.043 288.174 180.287 287.196 172.592 283.668C166.363 289.404 159.288 292.731 151.635 292.731C151.423 292.731 151.211 292.729 151 292.724V287.905C151.211 287.911 151.423 287.914 151.635 287.914C157.297 287.914 162.854 285.616 168.025 281.274C163.003 278.314 158.053 274.323 153.327 269.525C152.761 268.951 152.198 268.364 151.637 267.765C151.425 267.991 151.213 268.216 151 268.439V259.748C151.212 260.004 151.424 260.259 151.637 260.511C155.662 255.733 159.549 250.271 163.191 244.227C159.273 240.648 155.405 236.751 151.636 232.563C151.425 232.799 151.212 233.033 151 233.267V224.479C151.212 224.732 151.424 224.985 151.636 225.236C153.977 222.467 156.274 219.579 158.514 216.577C156.153 214.816 153.859 213.018 151.633 211.191C151.423 211.363 151.212 211.536 151 211.708V204.354C151.21 204.536 151.421 204.718 151.633 204.9C152.632 204.042 153.615 203.178 154.582 202.309C153.371 201.695 152.177 201.07 151 200.437V186.863C151.207 186.879 151.414 186.894 151.622 186.909C153.544 186.774 155.42 186.591 157.249 186.36C159.001 186.023 160.782 185.63 162.589 185.18C164.361 184.465 166.077 183.717 167.732 182.938C169.317 182.066 170.912 181.129 172.515 180.128C173.977 178.901 175.375 177.661 176.707 176.411C177.944 175.092 179.17 173.709 180.383 172.264C181.05 171.196 181.689 170.132 182.3 169.071L199.427 178.96C199.518 179.85 199.601 180.745 199.679 181.643C200.669 181.38 201.662 181.107 202.657 180.824L208.401 184.141C205.6 185.011 202.809 185.808 200.034 186.531C200.204 189.405 200.309 192.317 200.346 195.261C204.094 195.213 207.783 195.052 211.4 194.785C210.539 191.277 209.556 187.733 208.449 184.169L214.507 187.666C215.136 189.907 215.719 192.14 216.254 194.36C218.998 194.082 221.695 193.742 224.341 193.343L230.888 197.123C226.508 197.943 221.979 198.604 217.327 199.092C218.575 204.955 219.49 210.714 220.082 216.305C227.163 216.91 233.91 216.966 240.177 216.501C238.869 210.981 237.028 205.213 234.67 199.307L241.236 203.098C242.783 207.504 244.045 211.828 245.013 216.026C245.854 215.923 246.686 215.81 247.506 215.686C251.539 215.079 255.278 214.237 258.693 213.177L264.197 216.355C259.383 218.217 253.999 219.58 248.224 220.449C247.487 220.56 246.742 220.664 245.99 220.759C246.077 221.237 246.16 221.714 246.239 222.188C247.343 228.831 247.662 235.181 247.105 240.983C253.654 239.352 258.777 236.208 262.105 231.628C264.896 227.786 266.336 223.054 266.448 217.654L271.126 220.355ZM167.693 203.074C166.107 202.406 164.544 201.72 163.006 201.018C164.072 199.978 165.116 198.932 166.137 197.882C166.323 197.826 166.508 197.768 166.693 197.708C166.762 197.686 166.83 197.663 166.899 197.64C167.013 197.602 167.127 197.563 167.241 197.523C168.37 197.719 169.509 197.903 170.657 198.078C169.706 199.742 168.718 201.408 167.693 203.074ZM159.241 204.583C161.15 205.48 163.095 206.352 165.075 207.196C163.877 209.028 162.634 210.857 161.346 212.679C159.303 211.155 157.314 209.604 155.379 208.031C156.693 206.891 157.981 205.742 159.241 204.583ZM175.792 198.777C174.655 200.821 173.464 202.865 172.219 204.907C174.61 205.838 177.05 206.729 179.534 207.577C180.399 204.841 181.191 202.117 181.91 199.41C179.848 199.233 177.808 199.021 175.792 198.777ZM169.61 209.058C172.356 210.143 175.162 211.176 178.022 212.151C176.906 215.387 175.717 218.546 174.461 221.621C171.379 219.712 168.302 217.674 165.243 215.511C166.758 213.37 168.214 211.217 169.61 209.058ZM186.798 199.765C185.994 202.851 185.099 205.957 184.113 209.073C187.761 210.214 191.389 211.224 194.979 212.107C195.291 208.178 195.477 204.163 195.529 200.078C192.585 200.041 189.672 199.935 186.798 199.765ZM182.602 213.648C186.602 214.9 190.584 216.001 194.528 216.955C193.997 221.898 193.267 226.689 192.357 231.29C187.821 229.193 183.232 226.805 178.638 224.131C180.043 220.73 181.367 217.232 182.602 213.648ZM200.347 200.078C200.291 204.534 200.08 208.916 199.723 213.204C204.988 214.345 210.157 215.209 215.182 215.804C214.587 210.525 213.695 205.082 212.496 199.533C208.52 199.843 204.465 200.027 200.347 200.078ZM199.256 218.03C204.833 219.221 210.317 220.111 215.653 220.708C216.181 227.373 216.22 233.735 215.792 239.67C209.725 238.171 203.369 236.037 196.868 233.287C197.873 228.389 198.675 223.29 199.256 218.03ZM220.519 221.175C227.775 221.753 234.712 221.774 241.184 221.255C241.291 221.832 241.392 222.407 241.487 222.978C242.648 229.966 242.863 236.328 242.165 241.894C236.598 242.592 230.235 242.378 223.245 241.217C222.353 241.068 221.452 240.905 220.543 240.726C221.025 234.584 221.023 228.025 220.519 221.175ZM241.255 246.834C239.623 253.384 236.479 258.509 231.899 261.837C227.318 265.165 221.472 266.572 214.737 266.099C217.061 260.752 218.72 254.612 219.723 247.951C219.843 247.156 219.954 246.351 220.055 245.538C220.861 245.693 221.661 245.837 222.455 245.969C229.1 247.073 235.452 247.392 241.255 246.834ZM215.328 244.515C215.217 245.434 215.094 246.34 214.96 247.234C213.904 254.241 212.141 260.359 209.757 265.438C204.249 264.381 198.265 262.211 191.978 258.948C191.174 258.53 190.366 258.095 189.555 257.644C192.026 251.675 194.132 245.105 195.81 238.067C202.491 240.847 209.045 243.005 215.328 244.515ZM191.32 236.114C189.724 242.987 187.716 249.383 185.363 255.171C180.057 251.871 174.673 247.877 169.341 243.253C171.961 238.638 174.435 233.737 176.725 228.59C181.604 231.408 186.487 233.92 191.32 236.114ZM172.557 226.107C170.412 230.969 168.104 235.598 165.667 239.96C162.002 236.565 158.376 232.875 154.833 228.913C157.419 225.88 159.951 222.709 162.412 219.409C165.772 221.787 169.16 224.021 172.557 226.107ZM193.833 281.228C199.216 279.479 203.789 275.578 207.364 269.855C201.675 268.591 195.735 266.326 189.759 263.223C189.042 262.851 188.324 262.467 187.604 262.07C187.256 262.813 186.901 263.546 186.541 264.267C183.53 270.289 180.056 275.613 176.196 279.979C182.454 282.509 188.448 282.978 193.833 281.228ZM182.232 262.112C182.637 261.302 183.035 260.477 183.424 259.636C177.917 256.258 172.352 252.181 166.857 247.472C163.086 253.647 159.054 259.245 154.86 264.158C155.49 264.837 156.123 265.499 156.759 266.144C161.73 271.191 166.751 275.105 171.664 277.812C175.499 273.719 179.065 268.447 182.232 262.112ZM194.48 177.98C194.656 179.582 194.811 181.2 194.945 182.834C193.349 183.212 191.76 183.565 190.181 183.893C190.37 182.749 190.546 181.61 190.709 180.477C190.827 180.322 190.944 180.165 191.059 180.006C191.171 179.852 191.282 179.696 191.391 179.539C192.419 179.033 193.449 178.514 194.48 177.98ZM195.275 187.704C195.41 190.193 195.496 192.713 195.529 195.26C192.981 195.227 190.46 195.142 187.971 195.007C188.439 192.991 188.869 190.985 189.259 188.993C191.252 188.602 193.259 188.173 195.275 187.704ZM183.101 194.676C181.467 194.543 179.847 194.387 178.245 194.211C178.779 193.18 179.299 192.15 179.805 191.121C179.861 191.081 179.918 191.042 179.975 191.002C180.024 190.967 180.073 190.932 180.122 190.897C180.173 190.86 180.224 190.823 180.276 190.786C180.431 190.673 180.585 190.559 180.737 190.443C181.872 190.28 183.013 190.104 184.159 189.915C183.831 191.493 183.479 193.081 183.101 194.676Z" fill="url(#paint3_linear_19_212)"/>
<path fill-rule="evenodd" clip-rule="evenodd" d="M271.126 220.355C271.342 218.024 271.324 215.606 271.088 213.121C278.415 208.974 283.728 203.293 286.082 196.047C288.515 188.559 287.41 180.567 283.629 172.654C289.553 166.345 293 159.156 293 151.366C293 143.713 289.673 136.64 283.94 130.411C287.468 122.716 288.446 114.96 286.081 107.682C283.717 100.404 278.367 94.7049 270.99 90.5533C271.346 87.4882 271.377 84.5201 271.056 81.6858L266.426 84.3587C266.481 85.6238 266.462 86.927 266.368 88.2653C265.079 87.7054 263.745 87.1842 262.368 86.7014L256.705 89.9709C259.987 90.8764 262.995 91.9721 265.707 93.245C264.651 98.7549 262.481 104.741 259.216 111.029C258.8 111.831 258.366 112.637 257.915 113.446C251.946 110.974 245.375 108.868 238.335 107.19C239.521 104.34 240.594 101.513 241.552 98.72L235.042 102.478C234.568 103.69 234.073 104.908 233.555 106.131C232.358 105.886 231.148 105.652 229.927 105.431L223.332 109.239C226.133 109.643 228.878 110.113 231.558 110.643C229.34 115.443 226.794 120.303 223.929 125.165C220.302 123.679 216.566 122.283 212.733 120.991C213.452 118.719 214.123 116.453 214.746 114.196L208.719 117.676C208.533 118.287 208.343 118.898 208.149 119.51C207.579 119.334 207.01 119.161 206.441 118.991L200.635 122.343C202.627 122.885 204.628 123.465 206.637 124.085C205.911 126.188 205.154 128.258 204.368 130.294C202.595 129.225 200.82 128.197 199.046 127.209C199.214 125.816 199.367 124.412 199.504 122.996L181.986 133.11C182.398 133.816 182.798 134.52 183.185 135.221C183.968 136.884 184.72 138.607 185.44 140.388C185.895 142.219 186.294 144.023 186.633 145.798C186.862 147.612 187.044 149.475 187.177 151.381C187.045 153.258 186.867 155.094 186.642 156.882C186.3 158.676 185.897 160.501 185.436 162.353C184.729 164.103 183.989 165.798 183.221 167.434C182.922 167.979 182.614 168.524 182.3 169.071L199.427 178.96C199.311 177.808 199.184 176.664 199.046 175.527C200.822 174.539 202.598 173.51 204.373 172.44C205.27 174.766 206.13 177.136 206.948 179.548C205.514 179.993 204.083 180.419 202.657 180.824L208.401 184.141C208.413 184.137 208.425 184.133 208.437 184.13C208.441 184.143 208.445 184.156 208.449 184.168L214.506 187.666C214.037 185.995 213.541 184.32 213.019 182.641C216.918 181.32 220.717 179.892 224.401 178.37C227.075 182.964 229.463 187.552 231.56 192.088C229.201 192.555 226.793 192.974 224.34 193.343L230.887 197.123C231.784 196.955 232.674 196.781 233.557 196.6C233.94 197.505 234.311 198.408 234.67 199.307L241.236 203.098C240.361 200.603 239.394 198.081 238.337 195.541C245.374 193.863 251.944 191.758 257.912 189.287C258.363 190.097 258.798 190.904 259.215 191.708C262.661 198.346 264.888 204.647 265.872 210.407C263.672 211.45 261.275 212.376 258.693 213.177L264.197 216.355C264.953 216.062 265.695 215.758 266.422 215.441C266.455 216.19 266.464 216.928 266.448 217.654L271.126 220.355ZM263.491 189.488C266.754 195.774 269.091 202.019 270.31 207.975C275.934 204.417 279.77 199.884 281.501 194.558C283.318 188.964 282.742 182.713 279.947 176.191C275.638 179.946 270.42 183.33 264.535 186.272C263.814 186.633 263.082 186.987 262.338 187.336C262.735 188.055 263.119 188.773 263.491 189.488ZM262.381 181.964C268.529 178.889 273.676 175.44 277.716 171.734C275.027 167.031 271.239 162.235 266.417 157.485C265.595 156.675 264.744 155.869 263.867 155.067C259.09 159.091 253.683 162.961 247.742 166.589C252.45 172.084 256.527 177.649 259.904 183.156C260.745 182.766 261.571 182.369 262.381 181.964ZM266.416 146.245C265.594 147.054 264.744 147.86 263.867 148.662C258.94 144.512 253.343 140.526 247.181 136.8C252.128 131.092 256.397 125.303 259.908 119.577C260.747 119.966 261.572 120.363 262.381 120.767C268.717 123.936 273.991 127.502 278.084 131.339C275.377 136.252 271.464 141.274 266.416 146.245ZM244.497 162.923C250.293 159.431 255.553 155.714 260.188 151.865C255.396 147.886 249.938 144.048 243.91 140.454C240.492 144.154 236.793 147.805 232.834 151.369C237.021 155.138 240.918 159.005 244.497 162.923ZM229.184 148.172C232.91 144.84 236.395 141.435 239.621 137.992C235.292 135.599 230.705 133.333 225.891 131.227C223.944 134.362 221.872 137.487 219.676 140.59C222.977 143.052 226.15 145.585 229.184 148.172ZM236.382 111.679C234.069 116.774 231.404 121.924 228.398 127.067C233.498 129.32 238.36 131.752 242.944 134.329C247.815 128.779 252.005 123.166 255.443 117.638C249.654 115.285 243.257 113.276 236.382 111.679ZM215.779 137.759C217.756 134.962 219.628 132.15 221.394 129.334C218.096 127.999 214.702 126.739 211.222 125.565C210.367 128.046 209.469 130.486 208.531 132.88C210.956 134.431 213.374 136.058 215.779 137.759ZM269.797 154.053C269.053 153.32 268.287 152.59 267.501 151.865C268.287 151.139 269.052 150.41 269.797 149.677C274.595 144.951 278.586 140.001 281.546 134.979C285.885 140.149 288.183 145.704 288.183 151.366C288.183 157.178 285.761 162.878 281.195 168.164C278.274 163.343 274.408 158.595 269.797 154.053ZM198.346 132.345C199.746 133.145 201.148 133.971 202.548 134.824C201.917 136.336 201.269 137.828 200.606 139.297C199.79 138.47 198.971 137.657 198.149 136.858C198.093 136.674 198.036 136.49 197.976 136.307C197.917 136.124 197.855 135.941 197.792 135.76C197.987 134.631 198.172 133.492 198.346 132.345ZM212.946 141.656C210.866 140.185 208.776 138.773 206.683 137.419C205.877 139.325 205.046 141.199 204.191 143.04C205.574 144.528 206.944 146.055 208.301 147.619C209.873 145.685 211.423 143.697 212.946 141.656ZM225.507 151.369C222.737 149.027 219.848 146.729 216.844 144.487C215.084 146.847 213.287 149.14 211.461 151.365C213.289 153.591 215.086 155.886 216.848 158.247C219.85 156.006 222.738 153.709 225.507 151.369ZM240.23 165.399C236.835 161.734 233.146 158.108 229.184 154.566C226.151 157.151 222.98 159.683 219.68 162.144C222.058 165.505 224.291 168.892 226.377 172.289C231.24 170.144 235.868 167.836 240.23 165.399ZM255.439 185.094C252.14 179.789 248.146 174.405 243.523 169.073C238.908 171.693 234.007 174.167 228.86 176.457C231.678 181.336 234.19 186.219 236.384 191.052C243.257 189.456 249.652 187.447 255.439 185.094ZM205.17 151.365C204.101 150.121 203.024 148.902 201.939 147.708C201.418 148.746 200.89 149.772 200.355 150.787C200.36 150.979 200.362 151.172 200.362 151.366C200.362 151.557 200.36 151.748 200.356 151.938C200.891 152.953 201.42 153.98 201.941 155.02C203.025 153.827 204.102 152.608 205.17 151.365ZM208.301 155.11C209.874 157.046 211.425 159.036 212.95 161.078C210.87 162.549 208.781 163.962 206.688 165.315C205.881 163.407 205.049 161.531 204.193 159.688C205.575 158.201 206.945 156.674 208.301 155.11ZM215.782 164.976C217.945 168.034 219.982 171.112 221.892 174.193C218.535 175.564 215.078 176.856 211.53 178.06C210.585 175.271 209.585 172.535 208.535 169.854C210.961 168.303 213.378 166.676 215.782 164.976ZM202.553 167.911C201.151 168.764 199.748 169.591 198.346 170.392C198.172 169.244 197.988 168.106 197.792 166.977C197.857 166.793 197.919 166.609 197.979 166.423C198.039 166.238 198.097 166.054 198.153 165.868C198.974 165.07 199.793 164.257 200.609 163.431C201.272 164.903 201.92 166.396 202.553 167.911ZM270.124 95.6375C275.849 99.2131 279.751 103.786 281.5 109.171C283.25 114.555 282.781 120.549 280.251 126.807C275.885 122.945 270.559 119.471 264.535 116.459C263.815 116.099 263.084 115.745 262.342 115.397C262.737 114.679 263.121 113.963 263.492 113.248C266.595 107.27 268.861 101.329 270.124 95.6375Z" fill="url(#paint4_linear_19_212)"/>
<path fill-rule="evenodd" clip-rule="evenodd" d="M151 116.866C153.317 116.69 155.7 116.585 158.141 116.553C159.617 116.851 161.113 117.189 162.626 117.566C164.384 118.277 166.086 119.019 167.729 119.791C169.321 120.668 170.925 121.61 172.535 122.616C173.992 123.839 175.385 125.074 176.712 126.32C177.95 127.64 179.177 129.025 180.392 130.472C180.943 131.353 181.474 132.233 181.986 133.11L199.504 122.996C199.534 122.686 199.564 122.375 199.592 122.063C199.94 122.155 200.287 122.249 200.635 122.343L206.441 118.991C204.278 118.344 202.12 117.741 199.973 117.182C200.179 113.991 200.305 110.751 200.347 107.471C204.093 107.519 207.781 107.679 211.397 107.946C210.608 111.163 209.716 114.41 208.719 117.676L214.746 114.196C215.283 112.247 215.785 110.304 216.251 108.371C218.648 108.614 221.009 108.904 223.332 109.239L229.927 105.431C225.847 104.692 221.638 104.091 217.325 103.639C218.497 98.1282 219.377 92.7088 219.97 87.4344C227.001 86.8282 233.705 86.7624 239.938 87.2113C238.721 92.1355 237.085 97.2504 235.042 102.478L241.552 98.72C242.838 94.9673 243.917 91.2767 244.783 87.6753C245.703 87.7861 246.611 87.909 247.506 88.0438C250.77 88.5355 253.842 89.1808 256.706 89.9709L262.368 86.7014C258.033 85.1808 253.278 84.0417 248.223 83.2804C247.426 83.1604 246.621 83.0494 245.806 82.9476C245.961 82.1411 246.105 81.34 246.237 80.5444C247.341 73.9025 247.66 67.5536 247.104 61.7523C253.653 63.384 258.777 66.5278 262.105 71.1081C264.771 74.7778 266.204 79.2591 266.426 84.3587L271.056 81.6858C270.495 76.7451 268.861 72.2107 266.002 68.2766C261.504 62.0857 254.655 58.3184 246.356 56.6497C244.688 48.3482 240.92 41.4972 234.728 36.998C228.537 32.4999 220.858 31.0335 212.449 32.0113C208.298 24.6331 202.598 19.2828 195.319 16.9178C188.041 14.5528 180.285 15.5311 172.589 19.06C166.361 13.3266 159.287 10 151.634 10C151.422 10 151.211 10.0025 151 10.0076V14.8268C151.211 14.8204 151.423 14.8172 151.634 14.8172C157.296 14.8172 162.851 17.1148 168.021 21.4545C163 24.4143 158.051 28.4051 153.325 33.2028C152.76 33.777 152.196 34.3637 151.635 34.9627C151.424 34.737 151.212 34.5131 151 34.2909V42.9774C151.211 42.7219 151.423 42.4683 151.635 42.2166C155.662 46.9949 159.549 52.4574 163.192 58.5023C159.273 62.0826 155.405 65.9799 151.635 70.1679C151.424 69.9329 151.212 69.6988 151 69.4657V78.2508C151.211 77.9979 151.423 77.746 151.635 77.4951C153.977 80.2649 156.275 83.1547 158.517 86.1582C156.157 87.9185 153.864 89.7147 151.64 91.5411C151.427 91.3665 151.214 91.1923 151 91.0183V98.3835C151.212 98.1992 151.426 98.0152 151.639 97.8314C152.883 98.8999 154.102 99.9769 155.295 101.061C154.257 101.582 153.23 102.11 152.216 102.644C152.023 102.64 151.829 102.638 151.635 102.638C151.442 102.638 151.25 102.64 151.058 102.644C151.039 102.634 151.019 102.624 151 102.614V116.866ZM190.712 122.263C190.828 122.415 190.942 122.569 191.055 122.724C191.169 122.881 191.281 123.039 191.391 123.198C192.419 123.704 193.449 124.223 194.48 124.757C194.621 123.474 194.748 122.18 194.862 120.876C193.351 120.519 191.846 120.184 190.35 119.872C190.477 120.672 190.597 121.469 190.712 122.263ZM189.462 114.776C191.37 115.153 193.29 115.565 195.219 116.012C195.387 113.204 195.491 110.355 195.529 107.471C192.982 107.504 190.462 107.589 187.973 107.724C188.522 110.091 189.019 112.443 189.462 114.776ZM184.372 113.85C183.652 113.731 182.934 113.616 182.218 113.506C181.599 112.96 180.951 112.44 180.275 111.948C180.12 111.836 179.964 111.725 179.808 111.617C179.301 110.586 178.78 109.553 178.245 108.52C179.848 108.344 181.468 108.189 183.102 108.055C183.563 109.999 183.986 111.932 184.372 113.85ZM166.147 104.854C166.329 104.908 166.51 104.965 166.692 105.024C166.875 105.084 167.057 105.145 167.239 105.209C168.369 105.013 169.508 104.828 170.657 104.654C169.858 103.254 169.031 101.853 168.179 100.452C166.666 101.084 165.175 101.731 163.706 102.394C164.533 103.21 165.347 104.031 166.147 104.854ZM155.385 94.7013C156.949 96.0571 158.475 97.4271 159.962 98.8091C161.803 97.9546 163.678 97.1234 165.584 96.3174C164.23 94.2247 162.818 92.136 161.348 90.056C159.307 91.5797 157.319 93.1294 155.385 94.7013ZM165.668 62.7698C162.002 66.1654 158.375 69.8552 154.832 73.8178C157.419 76.8525 159.952 80.0249 162.414 83.3262C165.775 80.9482 169.163 78.7144 172.56 76.6284C170.415 71.7638 168.106 67.133 165.668 62.7698ZM174.464 81.1137C171.382 83.0236 168.304 85.061 165.245 87.224C166.945 89.6275 168.572 92.0449 170.123 94.4695C172.803 93.4194 175.541 92.4194 178.33 91.474C177.127 87.9267 175.835 84.4699 174.464 81.1137ZM179.818 96.0559C177.405 96.8747 175.034 97.7347 172.708 98.6324C173.777 100.405 174.805 102.18 175.792 103.954C177.809 103.71 179.849 103.499 181.912 103.321C181.271 100.912 180.574 98.4888 179.818 96.0559ZM154.858 38.5695C155.489 37.8904 156.122 37.2281 156.757 36.5831C161.728 31.5364 166.749 27.6233 171.662 24.9161C175.498 29.0091 179.064 34.2827 182.232 40.6191C182.637 41.429 183.035 42.2547 183.425 43.0956C177.917 46.4723 172.352 50.5498 166.858 55.2577C163.086 49.0816 159.053 43.4833 154.858 38.5695ZM169.342 59.4764C174.673 54.8535 180.058 50.8601 185.363 47.5602C187.716 53.3497 189.726 59.747 191.322 66.6226C186.489 68.8165 181.607 71.3274 176.728 74.1451C174.437 68.9961 171.963 64.0934 169.342 59.4764ZM178.641 78.6044C183.234 75.931 187.823 73.5428 192.358 71.4465C193.328 76.3476 194.092 81.4631 194.629 86.7504C190.754 87.6845 186.842 88.7619 182.911 89.9849C181.59 86.0862 180.163 82.2882 178.641 78.6044ZM184.4 94.5668C187.977 93.4551 191.533 92.4685 195.054 91.6045C195.321 95.2203 195.481 98.9075 195.529 102.653C192.585 102.691 189.673 102.796 186.8 102.966C186.074 100.18 185.274 97.3785 184.4 94.5668ZM193.83 21.4992C188.446 19.7495 182.452 20.2183 176.193 22.7486C180.055 27.1154 183.529 32.4409 186.541 38.4648C186.902 39.1858 187.256 39.918 187.605 40.6612C188.324 40.2648 189.041 39.8807 189.757 39.5092C195.734 36.4063 201.675 34.1402 207.366 32.877C203.79 27.1514 199.216 23.2489 193.83 21.4992ZM191.976 43.7846C191.172 44.2019 190.365 44.6363 189.556 45.0876C192.027 51.058 194.133 57.6294 195.811 64.6697C202.492 61.8899 209.045 59.7315 215.327 58.2219C215.216 57.3002 215.093 56.3906 214.958 55.4937C213.903 48.489 212.141 42.372 209.758 37.2941C204.249 38.3507 198.264 40.5207 191.976 43.7846ZM215.791 63.0671C209.725 64.566 203.37 66.7002 196.87 69.4495C197.935 74.6485 198.773 80.0739 199.361 85.6766C204.872 84.5041 210.292 83.6246 215.567 83.0315C216.173 76.0014 216.24 69.2986 215.791 63.0671ZM215.062 87.9394C210.1 88.5317 204.998 89.3853 199.802 90.5086C200.111 94.4828 200.295 98.5365 200.347 102.653C204.464 102.705 208.518 102.889 212.493 103.198C213.616 98.0029 214.47 92.9008 215.062 87.9394ZM220.542 62.0111C221.047 68.4511 221.019 75.3495 220.44 82.5614C227.653 81.9823 234.553 81.9545 240.994 82.46C241.173 81.5503 241.337 80.6484 241.485 79.7548C242.646 72.7682 242.861 66.4072 242.164 60.8421C236.597 60.1444 230.235 60.3588 223.246 61.5201C222.353 61.6685 221.452 61.8322 220.542 62.0111ZM214.737 36.6332C217.06 41.9792 218.719 48.1171 219.722 54.7763C219.842 55.5749 219.953 56.3824 220.055 57.1985C220.861 57.0437 221.662 56.9002 222.457 56.7681C229.1 55.664 235.451 55.3447 241.254 55.902C239.622 49.35 236.478 44.224 231.896 40.8952C227.316 37.5674 221.471 36.1609 214.737 36.6332Z" fill="url(#paint5_linear_19_212)"/>
<defs>
<linearGradient id="paint0_linear_19_212" x1="151" y1="115.5" x2="120" y2="134" gradientUnits="userSpaceOnUse">
<stop stop-color="#A844FF"/>
<stop offset="1" stop-color="#1ED1FF"/>
</linearGradient>
<linearGradient id="paint1_linear_19_212" x1="121" y1="133.5" x2="121" y2="169.5" gradientUnits="userSpaceOnUse">
<stop stop-color="#1ED1FF"/>
<stop offset="1" stop-color="#65F400"/>
</linearGradient>
<linearGradient id="paint2_linear_19_212" x1="120.5" y1="169" x2="151" y2="187" gradientUnits="userSpaceOnUse">
<stop stop-color="#65F400"/>
<stop offset="1" stop-color="#FFE102"/>
</linearGradient>
<linearGradient id="paint3_linear_19_212" x1="183.5" y1="169" x2="151" y2="187.5" gradientUnits="userSpaceOnUse">
<stop stop-color="#F47E00"/>
<stop offset="1" stop-color="#FFE100"/>
</linearGradient>
<linearGradient id="paint4_linear_19_212" x1="182" y1="132" x2="183" y2="169" gradientUnits="userSpaceOnUse">
<stop stop-color="#FF4FB2"/>
<stop offset="1" stop-color="#F47E00"/>
</linearGradient>
<linearGradient id="paint5_linear_19_212" x1="151" y1="116.5" x2="182.5" y2="132" gradientUnits="userSpaceOnUse">
<stop stop-color="#A844FF"/>
<stop offset="1" stop-color="#FF4FB2"/>
</linearGradient>
</defs>
</svg>
